<svg xmlns="http://www.w3.org/2000/svg" width="21.911" height="22.466" viewBox="0 0 21.911 22.466">
  <path id="Path_322" data-name="Path 322" d="M3.422,2.073a.606.606,0,0,0,.748.085L6.448.734A.605.605,0,0,0,6.689,0L5.55-2.851a.6.6,0,0,0-.56-.38q-.031,0-.061,0l-1.962.2a9.339,9.339,0,0,1,0-6.311l1.962.2a.6.6,0,0,0,.06,0,.6.6,0,0,0,.561-.38l1.139-2.848a.6.6,0,0,0,.044-.224.6.6,0,0,0-.285-.513L4.169-14.533a.6.6,0,0,0-.748.085A11.682,11.682,0,0,0,3.422,2.073ZM8.688-12.394a.424.424,0,0,0-.658-.091l-.21.2a.425.425,0,0,0-.079.507,1.131,1.131,0,0,1,.13.528,1.121,1.121,0,0,1-.13.525.425.425,0,0,0,.079.507l.21.2a.424.424,0,0,0,.658-.091A2.252,2.252,0,0,0,8.688-12.394ZM11.915-15.6a.423.423,0,0,0-.617-.033l-.2.2a.423.423,0,0,0-.033.576,5.633,5.633,0,0,1,0,7.222.423.423,0,0,0,.033.576l.2.2a.423.423,0,0,0,.617-.033A6.76,6.76,0,0,0,11.915-15.6ZM10.3-14.019a.424.424,0,0,0-.628-.046l-.2.2a.422.422,0,0,0-.045.56,3.38,3.38,0,0,1,0,4.118.422.422,0,0,0,.045.56l.2.2a.424.424,0,0,0,.628-.046A4.507,4.507,0,0,0,10.3-14.019Z" transform="translate(10.124 20.743) rotate(-40)" fill="#fddcc2"/>
</svg>
