<svg xmlns="http://www.w3.org/2000/svg" xmlns:xlink="http://www.w3.org/1999/xlink" width="70" height="64" viewBox="0 0 70 64">
  <defs>
    <clipPath id="clip-path">
      <rect id="Rectangle_2517" data-name="Rectangle 2517" width="70" height="64" fill="#f6881f"/>
    </clipPath>
  </defs>
  <g id="ic_3" transform="translate(0 0)">
    <g id="Group_1653" data-name="Group 1653" transform="translate(0 0)" clip-path="url(#clip-path)">
      <path id="Path_1533" data-name="Path 1533" d="M52.185,11.325V8.1c0-4.468-4.123-8.1-9.192-8.1H27.008c-5.068,0-9.192,3.636-9.192,8.1v3.221H7.9A7.962,7.962,0,0,0,0,19.331V55.994A7.962,7.962,0,0,0,7.9,64H62.1A7.961,7.961,0,0,0,70,55.994V19.331a7.961,7.961,0,0,0-7.9-8.006ZM66.749,55.994A4.684,4.684,0,0,1,62.1,60.7H7.9a4.684,4.684,0,0,1-4.648-4.71V19.331A4.684,4.684,0,0,1,7.9,14.62H62.1a4.684,4.684,0,0,1,4.647,4.711ZM27.008,3.295H42.993c3.276,0,5.942,2.157,5.942,4.809v3.221H44.182V9.93a5.067,5.067,0,0,0-5.3-4.784H31.119a5.068,5.068,0,0,0-5.3,4.784v1.4H21.067V8.1c0-2.652,2.665-4.809,5.941-4.809m13.924,8.031H29.069V9.93c0-.807.938-1.488,2.05-1.488h7.764c1.11,0,2.049.681,2.049,1.488Z" transform="translate(0 0)" fill="#f6881f"/>
      <path id="Path_1534" data-name="Path 1534" d="M55.421,40.128H48.239V32.848a.983.983,0,0,0-.976-.989H38.983a.983.983,0,0,0-.975.989v7.281H30.826a.982.982,0,0,0-.975.988v8.392a.982.982,0,0,0,.975.989h7.182v7.281a.983.983,0,0,0,.975.989h8.279a.983.983,0,0,0,.976-.989V50.5h7.182a.982.982,0,0,0,.975-.989V41.116a.982.982,0,0,0-.975-.988m-.975,8.392H47.263a.982.982,0,0,0-.975.988v7.281H39.959V49.508a.982.982,0,0,0-.975-.988H31.8V42.1h7.182a.983.983,0,0,0,.975-.989v-7.28h6.329v7.28a.983.983,0,0,0,.975.989h7.183Z" transform="translate(-7.473 -7.649)" fill="#f6881f"/>
    </g>
  </g>
</svg>
