<svg xmlns="http://www.w3.org/2000/svg" width="18" height="20" viewBox="0 0 18 20">
  <g id="export" transform="translate(-3.384)">
    <path id="Path_499" data-name="Path 499" d="M18.032,23.348H15.043v1.773h2.989c.889,0,1.578.454,1.578.845v7.863c0,.391-.69.845-1.578.845H6.736c-.889,0-1.578-.454-1.578-.845V25.966c0-.391.69-.845,1.578-.845H9.723V23.348H6.736c-1.879,0-3.352,1.15-3.352,2.618V33.83c0,1.468,1.472,2.618,3.352,2.618h11.3c1.879,0,3.352-1.15,3.352-2.618V25.966C21.383,24.5,19.911,23.348,18.032,23.348Z" transform="translate(0 -16.448)" fill="#fff"/>
    <path id="Path_500" data-name="Path 500" d="M22.843,4.42a.883.883,0,0,0,.627-.26l1.11-1.11v9.021a.887.887,0,1,0,1.773,0V2.99l1.17,1.17a.887.887,0,1,0,1.254-1.254L26.13.259A.883.883,0,0,0,25.5,0H25.49a.883.883,0,0,0-.627.259L22.216,2.906a.887.887,0,0,0,.627,1.513Z" transform="translate(-13.083)" fill="#fff"/>
  </g>
</svg>
