<svg xmlns="http://www.w3.org/2000/svg" width="50.121" height="50" viewBox="0 0 50.121 50">
  <g id="pending" transform="translate(0 0)">
    <path id="Path_472" data-name="Path 472" d="M37.461,7.555H9.183a1.639,1.639,0,0,0-1.64,1.639V54.437a1.639,1.639,0,0,0,1.64,1.639H37.461a1.639,1.639,0,0,0,1.64-1.639V9.194a1.639,1.639,0,0,0-1.64-1.639Zm0,0" transform="translate(-6.805 -6.815)" fill="#fff5f4"/>
    <path id="Path_473" data-name="Path 473" d="M12.631,56.076H9.179a1.639,1.639,0,0,1-1.64-1.639V9.194a1.639,1.639,0,0,1,1.64-1.639h3.452a1.639,1.639,0,0,0-1.64,1.639V54.437A1.639,1.639,0,0,0,12.631,56.076Zm0,0" transform="translate(-6.801 -6.815)" fill="#ebe0da"/>
    <path id="Path_480" data-name="Path 480" d="M247.958,258.165c-.118.016-.237.029-.357.041a13.278,13.278,0,1,1,.357-.041Zm0,0" transform="translate(-210.149 -209.016)" fill="#f64346"/>
    <path id="Path_481" data-name="Path 481" d="M247.958,258.165c-.119.016-.238.029-.357.041a13.288,13.288,0,1,1,.378-26.4,13.29,13.29,0,0,0-.021,26.354Zm0,0" transform="translate(-210.149 -209.016)" fill="#cb353c"/>
    <path id="Path_482" data-name="Path 482" d="M287.831,275.748a9.837,9.837,0,1,0-9.8,10.843,9.846,9.846,0,0,0,9.8-10.843Zm0,0" transform="translate(-241.951 -240.782)" fill="#fff5f4"/>
    <path id="Path_483" data-name="Path 483" d="M274.932,284.114a9.808,9.808,0,0,0,4.841,2.366,9.916,9.916,0,0,1-1.736.153,9.84,9.84,0,0,1-9.77-8.831,9.846,9.846,0,0,1,11.518-10.692,9.837,9.837,0,0,0-4.852,17.005Zm0,0" transform="translate(-241.958 -240.824)" fill="#ebe0da"/>
    <path id="Path_484" data-name="Path 484" d="M281.839,269.941A10.575,10.575,0,1,0,264.2,277.8a10.585,10.585,0,0,0,17.643-7.862Zm-10.593,9.091a9.1,9.1,0,1,1,6.094-15.867,9.1,9.1,0,0,1-6.094,15.867Zm0,0" transform="translate(-235.167 -233.962)"/>
    <path id="Path_485" data-name="Path 485" d="M309.417,290.473a.74.74,0,0,0-.74.74v6.056h-4.956a.74.74,0,1,0,0,1.479h5.7a.74.74,0,0,0,.74-.74v-6.8A.74.74,0,0,0,309.417,290.473Zm0,0" transform="translate(-273.321 -262.037)"/>
    <path id="Path_486" data-name="Path 486" d="M64.473,49.09H43.666a2.044,2.044,0,0,0-2.04,2.042v7.252a2.043,2.043,0,0,0,2.04,2.041H64.473a2.043,2.043,0,0,0,2.04-2.041V51.131A2.043,2.043,0,0,0,64.473,49.09Zm.561,9.294a.562.562,0,0,1-.561.562H43.666a.562.562,0,0,1-.561-.562V51.131a.562.562,0,0,1,.561-.562H64.473a.562.562,0,0,1,.561.562Zm0,0" transform="translate(-37.551 -44.284)"/>
    <path id="Path_487" data-name="Path 487" d="M91.983,80.563H74.955a.74.74,0,1,0,0,1.479H91.983a.74.74,0,0,0,0-1.479Zm0,0" transform="translate(-66.95 -72.676)"/>
    <path id="Path_488" data-name="Path 488" d="M176.454,118.3h-2.769a.74.74,0,0,0,0,1.479h2.769a.74.74,0,0,0,0-1.479Zm0,0" transform="translate(-156.015 -106.72)"/>
    <path id="Path_489" data-name="Path 489" d="M81.66,118.3H74.954a.74.74,0,1,0,0,1.479H81.66a.74.74,0,0,0,0-1.479Zm0,0" transform="translate(-66.95 -106.72)"/>
    <path id="Path_490" data-name="Path 490" d="M91.983,228.953H74.955a.74.74,0,1,0,0,1.479H91.983a.74.74,0,0,0,0-1.479Zm0,0" transform="translate(-66.95 -206.54)"/>
    <path id="Path_491" data-name="Path 491" d="M79.809,266.7H74.955a.74.74,0,1,0,0,1.479h4.853a.74.74,0,0,0,0-1.479Zm0,0" transform="translate(-66.95 -240.587)"/>
    <path id="Path_492" data-name="Path 492" d="M74.955,378.823H87.142a.74.74,0,0,0,0-1.479H74.955a.74.74,0,1,0,0,1.479Zm0,0" transform="translate(-66.95 -340.404)"/>
    <path id="Path_493" data-name="Path 493" d="M80.872,415.086H74.955a.74.74,0,1,0,0,1.479h5.917a.74.74,0,0,0,0-1.479Zm0,0" transform="translate(-66.95 -374.452)"/>
    <path id="Path_494" data-name="Path 494" d="M170.164,415.086h-4.541a.74.74,0,1,0,0,1.479h4.541a.74.74,0,0,0,0-1.479Zm0,0" transform="translate(-148.742 -374.452)"/>
    <path id="Path_495" data-name="Path 495" d="M45.465,25.532a14,14,0,0,0-12.428-3.251V2.379A2.382,2.382,0,0,0,30.658,0H2.379A2.382,2.382,0,0,0,0,2.379V47.622A2.381,2.381,0,0,0,2.379,50H30.658a2.369,2.369,0,0,0,1.527-.554,14.076,14.076,0,0,0,8.862-.346.739.739,0,1,0-.52-1.384,12.571,12.571,0,0,1-13.045-2.6c-8.2-7.727-2.8-21.7,8.63-21.7a12.552,12.552,0,0,1,6.9,23.027.739.739,0,1,0,.816,1.234,14.034,14.034,0,0,0,1.642-22.15ZM24.4,43.715H6.115a.562.562,0,0,1-.561-.562V35.9a.562.562,0,0,1,.561-.562H22.08A14.044,14.044,0,0,0,24.4,43.715ZM27.483,24.9a14.1,14.1,0,0,0-3.669,4.292H6.115a.563.563,0,0,1-.561-.562V21.374a.562.562,0,0,1,.561-.562H26.922a.562.562,0,0,1,.561.562Zm4.075-2.2a13.893,13.893,0,0,0-2.6,1.193V21.374a2.043,2.043,0,0,0-2.04-2.042H6.115a2.044,2.044,0,0,0-2.04,2.042v7.252a2.044,2.044,0,0,0,2.04,2.041h16.99a13.944,13.944,0,0,0-.881,3.191H6.115A2.044,2.044,0,0,0,4.075,35.9v7.252a2.044,2.044,0,0,0,2.04,2.042h19.41a14.051,14.051,0,0,0,4.3,3.326H2.379a.9.9,0,0,1-.9-.9V2.379a.9.9,0,0,1,.9-.9H30.657a.9.9,0,0,1,.9.9Zm0,0"/>
  </g>
</svg>
