<svg xmlns="http://www.w3.org/2000/svg" xmlns:xlink="http://www.w3.org/1999/xlink" width="604.602" height="382" viewBox="0 0 604.602 382">
  <defs>
    <clipPath id="clip-path">
      <rect id="Rectangle_2613" data-name="Rectangle 2613" width="183.792" height="308.869" fill="none"/>
    </clipPath>
    <clipPath id="clip-path-2">
      <rect id="Rectangle_2615" data-name="Rectangle 2615" width="269.113" height="285.593" fill="none"/>
    </clipPath>
  </defs>
  <g id="about_img" transform="translate(405.608 8.787)">
    <path id="Path_1775" data-name="Path 1775" d="M564.983,347.476q-2.513,2.256-5.28,4.333c-9.166,6.885-20.409,12.336-33.376,16.432-.017,0-.031.011-.048.014q-6.772,2.138-13.437,3.857h0q-7.323,1.891-14.532,3.3-10.129,1.973-20.1,3.028-7.585.807-15.119,1.11-7.724.313-15.435.116c-.549-.01-1.1-.027-1.648-.045q-8.466-.267-16.949-1.113-5.531-.544-11.088-1.326a331.039,331.039,0,0,1-35.519-7.091q-7-1.778-14.116-3.85c-12.259-3.562-24.821-7.759-37.819-12.5q-2.008-.735-4.03-1.483-10.36-3.844-21.113-8.119c-6.3-2.5-12.215-4.611-17.814-6.378a183.54,183.54,0,0,0-19.146-4.995c-3.3-.661-6.485-1.189-9.578-1.593a119.9,119.9,0,0,0-24.67-.744,58.463,58.463,0,0,0-6.725.918,95.6,95.6,0,0,0-10.769,2.806c-19.97,6.337-44,19.279-67.957,29.285a233.3,233.3,0,0,1-25.563,9.194c-35.954,10.263-65.571,6.694-86.739-7.286C-.428,341.022-11.7,285.182,13.685,215.841c42.058-114.884,157.6-103.154,234.8-116.076,52.258-8.745,75.592-39.517,109.109-65.014,64.064-48.732,157.209-42.573,184-4.08,22.369,32.146,3.155,83.06,7.556,137.13,1.359,16.706,4.974,33.714,12.768,50.561q.561,1.218,1.153,2.436,1.092,2.235,2.279,4.463,1.973,3.695,3.753,7.287.4.8.783,1.589.453.924.889,1.839c24.948,52.261,19.63,88.668-5.788,111.5" transform="translate(-392.488 -8.784)" fill="rgba(253,226,211,0.77)" opacity="0.5"/>
    <g id="Group_1817" data-name="Group 1817" transform="translate(-134.768 47.94)">
      <g id="Group_1818" data-name="Group 1818">
        <path id="Path_1817" data-name="Path 1817" d="M109.656,182.543s.8,21.655-1.119,24.124-11.956,8.091-11.956,8.091l34.191,21.566L151.284,215.2s-10.989-4.817-12.028-7.674c-1.437-3.953-1.174-24.979-1.174-24.979Z" transform="translate(-62.778 -118.653)" fill="#fff"/>
        <path id="Path_1818" data-name="Path 1818" d="M128.962,236.024,93.674,213.766l.763-.427c.1-.056,9.966-5.6,11.8-7.957,1.324-1.7,1.329-15.157,1.01-23.785a.52.52,0,0,1,1.04-.039c.083,2.236.751,21.917-1.229,24.463-1.668,2.145-8.953,6.419-11.355,7.795l33.1,20.878L148.5,214.4c-2.58-1.171-10.661-5.017-11.625-7.667-1.453-4-1.216-24.3-1.206-25.163a.52.52,0,0,1,.52-.514h.007a.52.52,0,0,1,.514.526c0,.209-.246,20.976,1.143,24.8.79,2.172,8.748,6.06,11.748,7.375l.686.3Z" transform="translate(-60.888 -117.687)" fill="#0e2549"/>
        <path id="Path_1819" data-name="Path 1819" d="M126.633,57.122c-4.541.482-15.587,1.513-15.587,9.619,0,9.246,1.564,21.133,2.5,27.393a5.039,5.039,0,0,0,4.987,4.3h27.977a5.041,5.041,0,0,0,5.01-4.467c.981-8.57,2.9-26.718,1.881-29.454-3.466-9.31-19.574-8.15-26.763-7.387" transform="translate(-72.18 -36.803)" fill="#0e2549"/>
        <path id="Path_1820" data-name="Path 1820" d="M123.3,120.531c7.935.919,17.842-.58,20.592-3.33,1.612-1.612,2.259-7.989,2.442-15.264a.6.6,0,0,1,.306-.5c1.96-1.124,4.8-3.528,4.716-7.137-.071-3.127-2.42-2.471-4.265-1.464a.5.5,0,0,1-.736-.431c-.146-8.772-.647-16.463-.647-16.463H110.224s.069,7.823.41,16.595a.5.5,0,0,1-.748.452c-1.877-1.084-4.461-1.971-4.536,1.312-.093,4.09,3.565,6.635,5.445,7.519a.592.592,0,0,1,.338.5c.412,6.187,1.006,11.538,1.858,13.431a5.941,5.941,0,0,0,2.548,2.585Z" transform="translate(-68.476 -49.358)" fill="#fff"/>
        <path id="Path_1821" data-name="Path 1821" d="M127.341,120.363a44.257,44.257,0,0,1-5.063-.282.52.52,0,1,1,.12-1.034c7.967.923,17.577-.593,20.164-3.181.9-.9,2.021-4.209,2.29-14.909a1.13,1.13,0,0,1,.566-.943c1.368-.784,4.538-3,4.455-6.674-.02-.872-.227-1.429-.615-1.653-.539-.312-1.562-.087-2.881.633a1.018,1.018,0,0,1-1.505-.879c-.123-7.414-.505-14.127-.616-15.952H109.784c.022,1.9.118,8.676.4,16.055a1.018,1.018,0,0,1-1.528.922c-1.44-.832-2.553-1.111-3.132-.785-.394.222-.6.779-.624,1.658-.1,4.44,4.609,6.784,5.147,7.037a1.112,1.112,0,0,1,.636.933c.6,8.948,1.316,12.146,1.814,13.253a5.423,5.423,0,0,0,2.336,2.349.52.52,0,1,1-.524.9,6.43,6.43,0,0,1-2.76-2.821c-.786-1.748-1.409-6.2-1.9-13.61a.073.073,0,0,0-.041-.061c-2.7-1.272-5.832-4.13-5.744-8a2.747,2.747,0,0,1,1.154-2.542c.933-.525,2.322-.265,4.129.772-.335-8.665-.408-16.494-.409-16.573l0-.524h36.5l.032.486c0,.077.5,7.784.648,16.454,1.682-.911,2.983-1.114,3.867-.6a2.763,2.763,0,0,1,1.134,2.53c.1,4.23-3.448,6.724-4.977,7.6a.083.083,0,0,0-.044.067c-.227,8.991-1.075,14.1-2.595,15.619-2.266,2.267-9.041,3.761-15.957,3.761" transform="translate(-67.511 -48.392)" fill="#0e2549"/>
        <path id="Path_1822" data-name="Path 1822" d="M84.748,353.22c-19.323-9.268-28.675,8.747-45.069,4.251A98.434,98.434,0,0,0,15.5,356.056c-13.056.92,14.782-32.751,13.761-35.009C27.7,317.608-.126,316.226,1.3,312.514l10.767-43.1s24.188-9.378,26.591-8.957l22.626,14.869c-1.039.605,8.645-8.432,22.412-15.276l23.761,9.363,13.863,41.233-28.8,7.17c2.722,6.891,5.049,41.558-7.774,35.408" transform="translate(-0.813 -169.03)" fill="#2e6b99"/>
        <path id="Path_1823" data-name="Path 1823" d="M139.1,633.52l0,.531-.388,83.873c-13.081-3.809-26.484-8.3-40.353-13.366l-2.3-25.788-2,24.2Q83,698.862,71.531,694.291c-6.718-2.671-13.033-4.931-19.008-6.82V631.5Z" transform="translate(-34.14 -410.475)" fill="#a1c5e2"/>
        <path id="Path_1824" data-name="Path 1824" d="M195.5,130.683h-.01a.916.916,0,0,1-.906-.926l.009-.832a.916.916,0,0,1,.915-.906h.011a.916.916,0,0,1,.906.925l-.009.832a.915.915,0,0,1-.915.906" transform="translate(-126.477 -83.212)" fill="#0e2549"/>
        <path id="Path_1825" data-name="Path 1825" d="M148.458,130.684a.915.915,0,0,1-.915-.907l-.008-.832a.916.916,0,0,1,.907-.925.926.926,0,0,1,.925.906l.008.832a.916.916,0,0,1-.907.925h-.009" transform="translate(-95.897 -83.213)" fill="#0e2549"/>
        <path id="Path_1826" data-name="Path 1826" d="M138.9,115.3a.694.694,0,0,1-.356-1.289,8.84,8.84,0,0,1,6.4-.916.694.694,0,0,1-.368,1.337,7.55,7.55,0,0,0-5.317.77.689.689,0,0,1-.355.1" transform="translate(-89.836 -73.357)" fill="#0e2549"/>
        <path id="Path_1827" data-name="Path 1827" d="M194.986,115.739a.69.69,0,0,1-.355-.1,7.483,7.483,0,0,0-5.315-.771.693.693,0,1,1-.37-1.337,8.841,8.841,0,0,1,6.4.916.693.693,0,0,1-.356,1.289" transform="translate(-122.484 -73.643)" fill="#0e2549"/>
        <path id="Path_1828" data-name="Path 1828" d="M28.292,515.624l.9,37.439,99.813.109-.353-46.11Z" transform="translate(-18.39 -329.59)" fill="#2e6b99"/>
        <path id="Path_1829" data-name="Path 1829" d="M38.151,485.794a60.762,60.762,0,0,1-10.919-.991.52.52,0,0,1,.187-1.023c14.742,2.691,25.779-.961,27.769-1.691a63.4,63.4,0,0,1,1.657-14.335L33.452,459.87a.52.52,0,0,1,.332-.986l24.323,8.2-.136.477a60.332,60.332,0,0,0-1.743,14.889v.348l-.322.132a51.248,51.248,0,0,1-17.756,2.866" transform="translate(-17.424 -298.256)" fill="#0e2549"/>
        <path id="Path_1830" data-name="Path 1830" d="M157.337,712.828a.521.521,0,0,1-.517-.471l-2.089-21.8-5.087-1.286-3.208-9.028a.52.52,0,0,1,.98-.349l3.023,8.5,5.258,1.329,2.159,22.528a.52.52,0,0,1-.468.567l-.05,0" transform="translate(-95.163 -441.706)" fill="#0e2549"/>
        <path id="Path_1831" data-name="Path 1831" d="M42.105,444.659l45.781-11.67s12.1-5.387,12.177-9.8L95.53,409.252c-1.16.5-5.573,7.133-10.436,10.617a15.413,15.413,0,0,1-8.58,2.648L44.2,426.8l-15.649-2.412,4.2-13.808L7.993,400.722s-6.122,38.722,2.469,46.229c5.711,4.991,31.644-2.292,31.644-2.292" transform="translate(-3.821 -260.469)" fill="#fff"/>
        <path id="Path_1832" data-name="Path 1832" d="M17.1,447.863c-3.48,0-6.409-.5-7.967-1.866-8.707-7.608-2.892-45.109-2.64-46.7l.1-.643,25.8,10.276L28.232,422.62l14.983,2.309L75.5,420.651h.043A15.028,15.028,0,0,0,83.8,418.1a47.049,47.049,0,0,0,7.733-7.779c1.514-1.793,2.266-2.665,2.8-2.894l.524-.224,4.736,14.561v.087c-.082,4.612-11.217,9.7-12.486,10.268l-.083.029L41.249,443.816c-.844.236-14.582,4.047-24.154,4.047M7.419,400.1c-.743,5.073-5.287,38.4,2.394,45.111,5.434,4.749,30.9-2.329,31.161-2.4l.012,0,45.737-11.659c3.282-1.468,11.631-5.91,11.826-9.236l-4.274-13.139c-.49.493-1.226,1.366-1.946,2.218a47.818,47.818,0,0,1-7.922,7.953,15.8,15.8,0,0,1-8.855,2.746L43.2,425.98l-.074-.012-16.242-2.5,4.232-13.924Z" transform="translate(-2.83 -259.124)" fill="#0e2549"/>
        <path id="Path_1833" data-name="Path 1833" d="M91.557,417.226c-5.985-.6-4.894-4.033-9.981-4.632s-7.2-2.445-7.2-2.445l-3.717,11.9s19.177,6.506,21.571,7.7,33.83,12.99,42.788,14.063c21.248,2.545,32.146-3.467,34.493-9.077,3.568-8.527-6.945-37.614-6.945-37.614l-25.928,6.223,5.079,17.982s-44.173-3.506-50.157-4.1" transform="translate(-45.926 -258.131)" fill="#fff"/>
        <path id="Path_1834" data-name="Path 1834" d="M143.351,443.794a80.807,80.807,0,0,1-9.6-.6c-8.934-1.071-40.4-12.834-42.959-14.115-2.335-1.167-21.313-7.61-21.5-7.675l-.481-.163,4.106-13.147.6.524c.019.016,2.09,1.752,6.922,2.321a7.509,7.509,0,0,1,4.791,2.309,7.591,7.591,0,0,0,5.181,2.322c5.483.548,43.569,3.581,49.4,4.044l-5.023-17.784,26.906-6.458.158.437c.432,1.2,10.541,29.376,6.935,37.991-2.241,5.356-10.836,9.995-25.433,10M70.1,420.58c3.053,1.038,18.942,6.46,21.155,7.566,2.546,1.273,33.766,12.951,42.617,14.012,19.816,2.375,31.49-2.877,33.952-8.761,3.215-7.684-5.511-33.136-6.8-36.8l-24.947,5.988,5.136,18.18-.745-.059c-.442-.035-44.247-3.513-50.168-4.106a8.656,8.656,0,0,1-5.779-2.588,6.474,6.474,0,0,0-4.211-2.044,16.626,16.626,0,0,1-6.858-2.127Z" transform="translate(-44.723 -256.99)" fill="#0e2549"/>
        <path id="Path_1835" data-name="Path 1835" d="M207.15,348.351v4.081l15.078.013v-4.093Z" transform="translate(-134.647 -226.427)" fill="#2e6b99"/>
        <path id="Path_1836" data-name="Path 1836" d="M221.782,352l-16.119-.013v-5.121h16.119ZM206.7,350.946l14.038.012v-3.052H206.7Z" transform="translate(-133.681 -225.462)" fill="#0e2549"/>
        <path id="Path_1837" data-name="Path 1837" d="M166.731,138.034a.535.535,0,0,1-.11-.012c-.5-.106-2.982-.708-3.239-2.1-.2-1.062-.084-1.349,1.286-4.865.3-.769.662-1.7,1.1-2.833a.52.52,0,1,1,.971.373c-.437,1.136-.8,2.067-1.1,2.837-1.336,3.429-1.371,3.549-1.233,4.3.093.506,1.474,1.064,2.435,1.271a.52.52,0,0,1-.109,1.029" transform="translate(-106.149 -83.13)" fill="#0e2549"/>
        <path id="Path_1838" data-name="Path 1838" d="M125.867,60.858s24.626,7.828,34.59-1.5c5.033-4.71-6.344-8.722-16.637-7.674s-24.729,3.134-17.953,9.171" transform="translate(-80.679 -33.488)" fill="#0e2549"/>
        <path id="Path_1839" data-name="Path 1839" d="M120.962,62.5s-15.823-3.98-11.154,17.266c2.235,10.172-3.051-3.511,10.639-12.412,1.421-.924.515-4.853.515-4.853" transform="translate(-70.815 -40.435)" fill="#0e2549"/>
        <path id="Path_1840" data-name="Path 1840" d="M4.98,358.608,0,378.046l28.033,6.641L33.2,370.124Z" transform="translate(0 -233.094)" fill="#2e6b99"/>
        <path id="Path_1841" data-name="Path 1841" d="M273.9,350.924l6.75,19.225-28.817,6.433L246.376,358.4Z" transform="translate(-160.144 -228.1)" fill="#2e6b99"/>
        <path id="Path_1842" data-name="Path 1842" d="M69.691,426.466a.527.527,0,0,1-.153-.023.521.521,0,0,1-.344-.65l6.847-22.306a.52.52,0,1,1,.994.306L70.188,426.1a.521.521,0,0,1-.5.368" transform="translate(-44.96 -262.027)" fill="#0e2549"/>
        <path id="Path_1843" data-name="Path 1843" d="M259.115,417.349a.519.519,0,0,1-.5-.363l-9.851-31.165a.52.52,0,1,1,.992-.314l9.851,31.165a.52.52,0,0,1-.5.677" transform="translate(-161.683 -250.343)" fill="#0e2549"/>
        <path id="Path_1844" data-name="Path 1844" d="M153.088,44.694s-15.965-1.531-21.309-1.533c-5.43,0-21.652,1.533-21.652,1.533V26.471s15.965-1.531,21.31-1.534c5.429,0,21.652,1.534,21.652,1.534Z" transform="translate(-71.582 -16.209)" fill="#a1c5e2"/>
        <path id="Path_1845" data-name="Path 1845" d="M154.77,166.049c-.54.8,2.214,3.526,5.413,3.385,5.221-.23,6.839-3.808,5.576-3.555a15.75,15.75,0,0,1-5.515,1.252c-3.372.083-5.112-1.617-5.475-1.082" transform="translate(-100.556 -107.813)" fill="#0e2549"/>
        <path id="Path_1846" data-name="Path 1846" d="M684.133,254.457c-.412-.856-10.013-21.084-4.639-31.815a11.32,11.32,0,0,1,8.445-6.093l.168-.016h20.327c.686.038,16.813,1.064,17.053,11.618a99.946,99.946,0,0,1-1.822,19.072l-1.7-.348a98.022,98.022,0,0,0,1.787-18.684c-.2-8.812-14.741-9.882-15.395-9.925H688.191a9.523,9.523,0,0,0-7.146,5.15c-5,9.972,4.553,30.087,4.651,30.289Z" transform="translate(-440.61 -140.746)" fill="#e2474b"/>
        <path id="Path_1847" data-name="Path 1847" d="M712,277.121l1.047-19.1h20.716l6.074,22.246Z" transform="translate(-462.798 -167.71)" fill="#fff"/>
        <path id="Path_1848" data-name="Path 1848" d="M660.149,610.121c-9.78,7.363-21.777,13.191-35.612,17.572-.019,0-.033.011-.051.015q-7.225,2.286-14.337,4.125l8.161-89.87-23.671,93.394q-10.808,2.11-21.447,3.238-8.093.863-16.132,1.186-8.242.336-16.469.125c3.008-9.173,6.008-18.367,8.935-27.367,2.674-8.22,5.282-16.275,7.769-24.008v0c2.971-9.22,5.769-17.982,8.3-26.008a.005.005,0,0,0,0-.007c6.1-19.316,10.671-34.36,12.4-41.3.044-.176.088-.348.132-.524v0c.351-1.4.707-2.733,1.058-4.011v0c.018-.077.04-.15.063-.223,1.062-3.831,2.121-7.122,3.161-9.945,4.634-12.616,8.8-15.935,10.656-16.784a2.831,2.831,0,0,1,1.113-.333l16.275.158,14.993.146,18.37.176A9.2,9.2,0,0,1,645.329,491c.172.154.352.319.546.506a20.051,20.051,0,0,1,1.374,1.465,35.234,35.234,0,0,1,4.886,7.722l0,.007c.1.228.212.454.322.693v0c.128.278.26.56.385.853l0,0a76.952,76.952,0,0,1,5.033,17.418c1.719,9.579,2.253,47.576,2.268,90.453" transform="translate(-351.383 -318.1)" fill="#0e2549"/>
        <path id="Path_1849" data-name="Path 1849" d="M761.893,598.6a.543.543,0,0,1-.118-.013.52.52,0,0,1-.39-.624l3.321-14.361,11.369-6.548a.521.521,0,0,1,.52.9l-10.977,6.322L762.4,598.2a.52.52,0,0,1-.506.4" transform="translate(-494.891 -375.041)" fill="#a1c5e2"/>
        <path id="Path_1850" data-name="Path 1850" d="M701.589,64.018c-3.507-2.126-13.539-1.718-19.511.639-6.212,2.452-12.271,82.964-12.271,82.964l45.739-1.683-1.377-47.826s-4.463-29.172-12.58-34.094" transform="translate(-435.374 -40.712)" fill="#0e2549"/>
        <path id="Path_1851" data-name="Path 1851" d="M678.485,165.033s.986,24.236.06,25.511c-3.167,4.364-12.55,8.2-14.692,8.781s35.02,14.751,35.02,14.751l21.088-13.523-9.577-3.48s-6.328-.852-8.868-3.476-3.776-27.281-3.776-27.281Z" transform="translate(-431.446 -107.271)" fill="#fff"/>
        <path id="Path_1852" data-name="Path 1852" d="M697.964,213.62l-.245-.094c-.088-.033-8.9-3.4-17.586-6.868-17.916-7.161-17.886-7.749-17.857-8.318a.6.6,0,0,1,.473-.553c2.45-.659,11.439-4.5,14.406-8.584.578-1.185.211-16.08-.159-25.185l-.023-.579,20.3,1.352.023.462c.493,9.833,1.866,25.123,3.63,26.946,2.385,2.463,8.5,3.313,8.564,3.322l.108.027,10.565,3.84Zm-34.137-15.082c3.624,2.065,22.1,9.374,34.017,13.923l19.983-12.814-8.537-3.1c-.686-.1-6.581-1-9.116-3.621-2.484-2.566-3.684-23.091-3.9-27.155l-18.218-1.213c.251,6.315.866,23.982-.061,25.259-2.98,4.106-11.065,7.655-14.169,8.724" transform="translate(-430.477 -106.236)" fill="#0e2549"/>
        <path id="Path_1853" data-name="Path 1853" d="M659.753,257.31l8.443-4.47,15.045,3.273L688.552,254l7.288-.447,12.535-1.628,7.779,3.89-1.346,79.221H681.3Z" transform="translate(-428.838 -163.75)" fill="#a1c5e2"/>
        <path id="Path_1854" data-name="Path 1854" d="M607.146,325.712l-.645,11.849-.275,5.093-36.986,142.3-.619,2.387h-34.11l.37-1.137,8.78-27.012,9.711-29.873v0l7.828-24.081,12.359-38.02s-2.323-10-4.853-23.882c-.077-.416-.154-.84-.231-1.264-.029-.156-.055-.315-.084-.471-.652-3.633-1.315-7.506-1.945-11.516-.41-2.594-.806-5.241-1.183-7.922q-.121-.831-.231-1.674c-3.311-24.208-4.747-50.268,2.715-57.849.113-.116.227-.228.337-.333,4.923-4.832,9.253-5.34,11.667-5.343,7.429-.011,27.4,68.753,27.4,68.753" transform="translate(-347.431 -167.023)" fill="#fff"/>
        <path id="Path_1855" data-name="Path 1855" d="M567.7,486.9H532.474l26.91-82.785L571.7,366.229c-.291-1.267-2.482-10.913-4.826-23.766-.077-.416-.154-.84-.231-1.265-.015-.08-.03-.165-.044-.249l-.039-.22c-.736-4.1-1.372-7.868-1.948-11.53-.409-2.585-.807-5.253-1.185-7.93-.081-.554-.158-1.115-.231-1.679-4.412-32.259-3.451-51.868,2.858-58.279.117-.119.235-.236.348-.344,3.754-3.684,7.688-5.48,12.024-5.487h0c1.24,0,3.407,1.148,7.884,11.042,2.587,5.717,5.644,13.684,9.087,23.679,5.857,17,10.87,34.232,10.92,34.4l.025.084-.94,17.132-36.986,142.3Zm-33.8-1.034h33l.519-2,36.973-142.251.912-16.8c-.388-1.329-5.243-17.906-10.882-34.275-10.575-30.7-14.706-34.02-15.992-34.02h0c-4.052.006-7.75,1.705-11.305,5.195-.11.106-.22.215-.33.327-5.988,6.084-6.877,25.938-2.571,57.417.073.562.15,1.117.231,1.669.376,2.674.774,5.336,1.182,7.916.574,3.655,1.21,7.418,1.944,11.505l.083.467c.077.427.154.85.231,1.266,2.5,13.712,4.825,23.76,4.849,23.86l.033.14Z" transform="translate(-346.107 -166.062)" fill="#0e2549"/>
        <path id="Path_1856" data-name="Path 1856" d="M804.691,262.734c-.663-.628-1.282-1.172-1.85-1.621a18.79,18.79,0,0,0-11.968-3.369l-9.557,71.664-.066,9.4-.245,35.145-.714,102.393c.018,0,.033-.011.051-.015,13.835-4.366,25.832-10.174,35.612-17.511q2.951-2.212,5.634-4.618c-2.472-38.694-6.286-91.007-9.282-99.319a28.6,28.6,0,0,0-1.557-3.289,139.252,139.252,0,0,0,17.015-16.208c5.806-6.665,11.154-14.514,12.656-22.019.685-3.409-24.155-39.7-35.73-50.63m-2.3,74.924c-1.139-1.792-1.9-2.961-1.9-2.961l1.062-31.743,10.946,14.963Z" transform="translate(-507.188 -167.497)" fill="#fff"/>
        <path id="Path_1857" data-name="Path 1857" d="M778.8,476.017l1.034-147.642,9.612-72.074.412-.038c.414-.039.85-.058,1.3-.058a19.414,19.414,0,0,1,11.042,3.537c.568.449,1.2,1,1.885,1.651,6.187,5.844,15.7,18.408,22.531,28.216,2.327,3.339,13.9,20.134,13.351,22.893-1.309,6.541-5.607,14.03-12.774,22.258a138.977,138.977,0,0,1-16.748,16,26.348,26.348,0,0,1,1.386,2.976c2.97,8.238,6.7,58.635,9.313,99.463l.016.251-.188.168c-1.793,1.607-3.7,3.17-5.669,4.646-9.624,7.22-21.658,13.138-35.767,17.591l-.033.009a.619.619,0,0,1-.069.018Zm2.068-147.537-1.02,146.188c13.726-4.394,25.441-10.189,34.828-17.231,1.876-1.407,3.7-2.893,5.411-4.421-2.6-40.715-6.314-90.818-9.237-98.924a28.035,28.035,0,0,0-1.527-3.221l-.2-.38.337-.269A137.9,137.9,0,0,0,826.4,334.077c7.047-8.089,11.265-15.417,12.538-21.779.587-2.92-23.727-38.959-35.577-50.151-.661-.625-1.272-1.161-1.815-1.591a18.282,18.282,0,0,0-10.4-3.313c-.268,0-.532.007-.789.022Z" transform="translate(-506.216 -166.532)" fill="#0e2549"/>
        <path id="Path_1858" data-name="Path 1858" d="M838.966,419.943l-.487-.766c-1.137-1.789-1.9-2.955-1.9-2.955l-.089-.138,1.118-33.41,12.022,16.435Zm-1.425-4.151c.189.291.666,1.028,1.328,2.063l9.548-18.65-9.869-13.491Z" transform="translate(-543.719 -248.738)" fill="#0e2549"/>
        <path id="Path_1859" data-name="Path 1859" d="M834.94,426.874c-.347.322.333.9-10.863,15.623-6.878,9.044-10.82,14.376-12.356,15.216-3.471,1.9-8.195,5.139-7.535,5.418l17.6,2.763s-1.387-4.045-.464-5.13c3.235-3.8,25.471-24.4,28.2-33.665s-14.587-.225-14.587-.225" transform="translate(-522.679 -274.899)" fill="#fff"/>
        <path id="Path_1860" data-name="Path 1860" d="M821.593,465.591l-18.577-2.931a.611.611,0,0,1-.379-.535c-.015-.3-.036-.712,2.787-2.672,1.546-1.072,3.492-2.278,5.079-3.145,1.277-.7,4.8-5.334,10.123-12.351l2.07-2.724c4.2-5.522,9.455-12.652,10.647-15.258a1.207,1.207,0,0,1,.276-.432l.051-.048.062-.032c1.17-.611,11.531-5.894,14.71-3.279.977.8,1.184,2.186.616,4.111-2.16,7.326-16.22,21.53-23.774,29.161-2.137,2.159-3.824,3.863-4.531,4.694-.451.531-.06,2.813.561,4.624Zm-17.532-3.8,16.012,2.513c-.394-1.365-.947-3.842-.113-4.823.732-.861,2.348-2.493,4.584-4.752,7.489-7.566,21.43-21.649,23.516-28.723.438-1.487.344-2.5-.279-3.014-2.219-1.824-10.355,1.738-13.457,3.34-.01.022-.021.048-.036.079-.988,2.162-4.61,7.362-10.765,15.455l-2.069,2.723c-5.79,7.627-8.979,11.829-10.452,12.634a48.714,48.714,0,0,0-6.941,4.567" transform="translate(-521.711 -273.95)" fill="#0e2549"/>
        <path id="Path_1861" data-name="Path 1861" d="M814.8,539.266a.524.524,0,0,1-.08-.006l-24.18-3.753a.52.52,0,1,1,.159-1.028l24.18,3.753a.52.52,0,0,1-.079,1.034" transform="translate(-513.561 -347.406)" fill="#0e2549"/>
        <path id="Path_1862" data-name="Path 1862" d="M666.063,244.279l9.24-7.742,19.934,7.293-6.036,7.742Z" transform="translate(-432.94 -153.749)" fill="#a1c5e2"/>
        <path id="Path_1863" data-name="Path 1863" d="M771.128,243.325l-6.877-6.789-14.835,7.293,5.928,6.733Z" transform="translate(-487.12 -153.749)" fill="#a1c5e2"/>
        <path id="Path_1864" data-name="Path 1864" d="M715.877,242.315l-7.676-7.578L693.233,242.1l-20.007-7.321-10.2,8.545,24.388,7.687L692.879,244c.887,8.708,5.885,59.261,4.57,79.83a.521.521,0,0,0,.486.552h.034a.52.52,0,0,0,.519-.487c1.3-20.4-3.567-70.072-4.541-79.673l5.11,5.8ZM687.04,249.8l-21.888-6.9,8.282-6.94,18.981,6.945ZM708,236l6.078,6-14.748,6.762-5.223-5.931Z" transform="translate(-430.967 -152.579)" fill="#0e2549"/>
        <path id="Path_1865" data-name="Path 1865" d="M661.883,604.073s-6.081-8.174-7.147-11.1c-.652-1.786.616-10.859.616-10.859l-4.624-19.774,10.525-2.39s.027,19.6.229,21.88,6.38,8.183,6.227,9.787-6.34-3.4-6.34-3.4-.427,4.691-.061,6.21c.67,2.778,2.151,9.511,1.807,11.015-.261,1.141-3.321-5.192-5.056-10.445-.7-2.132-.373-3.652-.541-5.026Z" transform="translate(-422.971 -363.97)" fill="#fff"/>
        <path id="Path_1866" data-name="Path 1866" d="M661.8,604.893c-.262,0-.628-.126-1.529-1.767-.548-.738-6.134-8.306-7.184-11.181-.657-1.8.4-9.707.576-11.013l-4.721-20.189,11.67-2.65v.651c0,.2.029,19.6.227,21.835.09,1.019,1.856,3.252,3.275,5.045,1.889,2.388,3.042,3.9,2.952,4.837a.829.829,0,0,1-.5.714c-1.028.434-3.884-1.564-5.914-3.149a24.885,24.885,0,0,0,0,5.074c.23.954,2.237,9.38,1.809,11.253a.64.64,0,0,1-.592.538l-.071,0m-.6-2.232c.095.174.185.333.269.475a74.733,74.733,0,0,0-1.829-9.792c-.382-1.584.03-6.184.048-6.38l.089-.969.757.612c2.067,1.672,4.619,3.4,5.475,3.588a19.808,19.808,0,0,0-2.713-3.926c-1.737-2.2-3.378-4.27-3.5-5.6-.183-2.067-.223-17.8-.23-21.274l-9.38,2.13,4.527,19.358-.014.1c-.5,3.6-1.088,9.388-.642,10.608a40.4,40.4,0,0,0,3.848,6.431c-.563-1.381-1.086-2.788-1.507-4.063a11.2,11.2,0,0,1-.509-3.78,11.69,11.69,0,0,0-.055-1.346.52.52,0,1,1,1.033-.126,12.429,12.429,0,0,1,.062,1.469,10.327,10.327,0,0,0,.456,3.457,63.047,63.047,0,0,0,3.761,8.943.51.51,0,0,1,.049.09" transform="translate(-421.809 -362.76)" fill="#0e2549"/>
        <path id="Path_1867" data-name="Path 1867" d="M662.8,536.765a.52.52,0,0,1-.145-1.019l18.194-5.306a.52.52,0,1,1,.291,1l-18.195,5.306a.529.529,0,0,1-.146.021" transform="translate(-430.479 -344.771)" fill="#0e2549"/>
        <path id="Path_1868" data-name="Path 1868" d="M643.073,535.977l4.366,25.651,10.807-2.437,1.538-26.21Z" transform="translate(-417.996 -346.437)" fill="#fff"/>
        <path id="Path_1869" data-name="Path 1869" d="M840.781,435.457l-4.165,8.064,9.418,8.025,2.468-2.06,22.239-24.351L875,413.8l-4.713-3.03-14.57,4.6s-7.2,8.528-7.535,9.313-7.405,10.771-7.405,10.771" transform="translate(-543.799 -267.001)" fill="#fff"/>
        <path id="Path_1870" data-name="Path 1870" d="M683.877,328.759a4.946,4.946,0,1,0,4.946-4.946,4.946,4.946,0,0,0-4.946,4.946" transform="translate(-444.519 -210.478)" fill="#ebf4fe"/>
        <path id="Path_1871" data-name="Path 1871" d="M795.016,282.016c.182-3.812.575-19.2-4.553-24.994a6.528,6.528,0,0,0-3.547-2.161,98.184,98.184,0,0,0,1.65-18.169c-.176-7.733-3.4-8.856-8.3-9.685l-.29,1.71c4.4.745,6.7,1.44,6.852,8.015a96.663,96.663,0,0,1-1.656,18,6.384,6.384,0,0,0-4.511,2.611c-4.987,6.163-5.729,22.46-5.308,28.185a1.876,1.876,0,1,0,1.7-.327c-.378-5.4.352-21.073,4.96-26.767a4.514,4.514,0,0,1,3.834-1.979,4.634,4.634,0,0,1,3.316,1.716c4.591,5.186,4.286,19.832,4.123,23.648a1.635,1.635,0,1,0,1.73.2" transform="translate(-503.517 -147.554)" fill="#e2474b"/>
        <path id="Path_1872" data-name="Path 1872" d="M685.461,256.5c-1.622-3.57-11.667-26.85-1.157-33.489l-.926-1.466c-11.355,7.172-2.144,29.758.23,35.074a5.8,5.8,0,1,0,1.853-.119m-.568,9.863a4.079,4.079,0,1,1,4.079-4.079,4.084,4.084,0,0,1-4.079,4.079" transform="translate(-440.589 -144.005)" fill="#e2474b"/>
        <path id="Path_1873" data-name="Path 1873" d="M843.477,500.72a.518.518,0,0,1-.334-.122l-10.523-8.832,3.313-6.789a.52.52,0,0,1,.935.456l-2.957,6.059,9.9,8.309a.52.52,0,0,1-.335.919" transform="translate(-541.202 -315.044)" fill="#0e2549"/>
        <path id="Path_1874" data-name="Path 1874" d="M681.884,122.6c-2.986-1.815-8.247-5.517-8.536-9.323s4.076-3.533,5.427-2.983c.9.366-.76-18.661-.76-18.661l29.433-2.752s5.022,16.215,4.385,26.781c-.639,10.61-5.375,13.536-13.051,14.186a18,18,0,0,1-9.244-1.5Z" transform="translate(-437.666 -57.776)" fill="#fff"/>
        <path id="Path_1875" data-name="Path 1875" d="M695.709,129.248a18.3,18.3,0,0,1-7.736-1.639.688.688,0,0,1,.576-1.25,17.477,17.477,0,0,0,8.9,1.438c7.2-.609,11.792-3.087,12.423-13.541.557-9.255-3.348-23.12-4.2-26L677.482,90.89c.121,1.439.409,4.942.637,8.45.625,9.562.266,9.828-.151,10.134a.747.747,0,0,1-.73.092,4.589,4.589,0,0,0-3.73.274,2.1,2.1,0,0,0-.752,2.02c.192,2.531,3.183,5.734,8.207,8.787a.688.688,0,1,1-.715,1.176c-3.882-2.359-8.571-5.985-8.865-9.859a3.416,3.416,0,0,1,1.314-3.236,5.721,5.721,0,0,1,4.356-.651c.161-2.233-.363-10.421-1-17.75l-.06-.681,30.671-2.867.166.534c.206.667,5.051,16.456,4.415,27.025-.728,12.079-7.006,14.266-13.681,14.831q-.939.08-1.854.079" transform="translate(-436.389 -56.406)" fill="#0e2549"/>
        <path id="Path_1876" data-name="Path 1876" d="M711.991,85.22s-26.89,9.257-31.621,22.456a7.453,7.453,0,0,0-2.9-.538,3.584,3.584,0,0,0-2.07.729l1.886-20.79Z" transform="translate(-439.009 -55.393)" fill="#0e2549"/>
        <path id="Path_1877" data-name="Path 1877" d="M761.574,140.8a1.148,1.148,0,0,1-1.13-.952l-.164-.953a1.147,1.147,0,1,1,2.261-.39l.164.954a1.147,1.147,0,0,1-.936,1.325,1.17,1.17,0,0,1-.2.017" transform="translate(-494.17 -89.407)" fill="#0e2549"/>
        <path id="Path_1878" data-name="Path 1878" d="M724.177,143.925a1.148,1.148,0,0,1-1.13-.952l-.164-.953a1.147,1.147,0,0,1,2.261-.39l.164.954a1.147,1.147,0,0,1-.936,1.325,1.176,1.176,0,0,1-.2.017" transform="translate(-469.862 -91.44)" fill="#0e2549"/>
        <path id="Path_1879" data-name="Path 1879" d="M711.946,129.67a.688.688,0,0,1-.371-1.269,10.125,10.125,0,0,1,6.971-1.289.688.688,0,0,1-.285,1.347,8.865,8.865,0,0,0-5.945,1.1.685.685,0,0,1-.37.108" transform="translate(-462.316 -82.524)" fill="#0e2549"/>
        <path id="Path_1880" data-name="Path 1880" d="M746.815,169.263c.481.532-2,2.687-4.036,2.689-5.107,0-6.686-3.626-5.537-3.055a12.186,12.186,0,0,0,5.537,1.184c3.24-.238,3.488-1.422,4.036-.818" transform="translate(-478.975 -109.743)" fill="#0e2549"/>
        <path id="Path_1881" data-name="Path 1881" d="M749.877,149.752a.688.688,0,0,1-.134-1.364,12,12,0,0,0,3.148-1c-.093-.138-.271-.349-.433-.541a17.255,17.255,0,0,1-2.968-4.876.688.688,0,1,1,1.269-.534,15.994,15.994,0,0,0,2.752,4.523c.519.616.895,1.061.8,1.685-.048.314-.194,1.271-4.3,2.088a.683.683,0,0,1-.135.014m3.075-2.247h0Z" transform="translate(-486.972 -91.663)" fill="#0e2549"/>
        <path id="Path_1882" data-name="Path 1882" d="M752.425,125.1a.689.689,0,0,1-.239-1.334,12.579,12.579,0,0,1,6.021-.685.688.688,0,0,1-.238,1.356,11.4,11.4,0,0,0-5.3.621.691.691,0,0,1-.239.043" transform="translate(-488.628 -79.931)" fill="#0e2549"/>
        <path id="Path_1883" data-name="Path 1883" d="M735.622,63s31.484-4.815,26.85,49.945c-2.842,33.578-10.019,43.771-10.019,43.771s1.911-11.617-.608-46.9c-.861-12.058,1.123-18.379-1.153-25.2C745.767,69.858,735.622,63,735.622,63" transform="translate(-478.153 -40.879)" fill="#0e2549"/>
        <path id="Path_1884" data-name="Path 1884" d="M678.856,62.643s-53.988-2.9-17.688,93.994L670,88.192Z" transform="translate(-421.6 -40.712)" fill="#0e2549"/>
        <path id="Path_1885" data-name="Path 1885" d="M648.06,466.23l-3.648-15.845a.52.52,0,0,1,1.014-.233l3.421,14.86,11.278-2.255v-34.74l-.742-42.21a.52.52,0,0,1,.511-.529h.009a.52.52,0,0,1,.52.511l.743,42.22v35.6Z" transform="translate(-418.858 -250.429)" fill="#0e2549"/>
        <path id="Path_1886" data-name="Path 1886" d="M862.675,525.12a.52.52,0,0,1-.33-.923l2.269-1.856a.52.52,0,0,1,.659.8L863,525a.517.517,0,0,1-.329.118" transform="translate(-560.399 -339.444)" fill="#0e2549"/>
        <path id="Path_1887" data-name="Path 1887" d="M393.34,132.106s.8,21.655-1.119,24.124-15.23,11.95-15.23,11.95l36.217,20.945,21.759-24.366s-10.989-4.817-12.028-7.674c-1.437-3.953-1.174-24.979-1.174-24.979Z" transform="translate(-245.044 -85.869)" fill="#fff"/>
        <path id="Path_1888" data-name="Path 1888" d="M411.53,189.752,374.247,168.19l.659-.469c.132-.094,13.268-9.464,15.121-11.846,1.324-1.7,1.329-15.157,1.01-23.785l1.04-.039c.083,2.236.752,21.917-1.229,24.463-1.718,2.209-11.942,9.617-14.681,11.584l35.152,20.329,21-23.52c-2.548-1.155-10.687-5.02-11.654-7.681-1.453-4-1.217-24.3-1.206-25.163l1.041.013c0,.21-.245,20.976,1.143,24.8.789,2.171,8.748,6.06,11.747,7.375l.657.288Z" transform="translate(-243.26 -85.833)" fill="#0e2549"/>
        <path id="Path_1889" data-name="Path 1889" d="M430.707,7.481c4.541.482,15.587,1.513,15.587,9.619,0,9.246-1.564,21.133-2.5,27.393a5.039,5.039,0,0,1-4.987,4.3H410.834a5.041,5.041,0,0,1-5.01-4.467c-.981-8.57-4.568-28.267-3.549-31,3.465-9.31,21.242-6.6,28.432-5.837" transform="translate(-261.361 -4.24)" fill="#0e2549"/>
        <path id="Path_1890" data-name="Path 1890" d="M430.667,70.954c-7.935.919-17.842-.58-20.592-3.33-1.612-1.612-2.259-7.989-2.442-15.264a.6.6,0,0,0-.306-.505c-1.96-1.124-4.8-3.528-4.716-7.137.071-3.127,2.42-2.471,4.265-1.464.329.179.806-.063.736-.431C406,34.39,405.25,25.937,405.25,25.937l38.5.422s-.07,7.823-.41,16.6a.5.5,0,0,0,.748.451c1.877-1.084,4.461-1.971,4.536,1.312.093,4.09-3.565,6.635-5.445,7.519a.593.593,0,0,0-.339.5c-.412,6.187-1.006,11.538-1.858,13.431a5.944,5.944,0,0,1-2.548,2.585Z" transform="translate(-261.696 -16.859)" fill="#fff"/>
        <path id="Path_1891" data-name="Path 1891" d="M424.7,70.776c-6.916,0-13.69-1.494-15.957-3.761-1.519-1.519-2.368-6.628-2.595-15.618a.082.082,0,0,0-.044-.067c-1.528-.876-5.073-3.37-4.977-7.6a2.762,2.762,0,0,1,1.134-2.53c.88-.509,2.175-.31,3.846.592-1.582-8.312-2.333-16.7-2.341-16.785l-.05-.572,39.591.434,0,.519c0,.078-.073,7.908-.409,16.572,1.807-1.037,3.2-1.3,4.129-.772a2.747,2.747,0,0,1,1.154,2.542c.088,3.871-3.039,6.73-5.744,8a.073.073,0,0,0-.041.062c-.494,7.41-1.116,11.862-1.9,13.61a6.431,6.431,0,0,1-2.76,2.821.52.52,0,1,1-.524-.9,5.428,5.428,0,0,0,2.336-2.349c.5-1.107,1.218-4.305,1.814-13.252a1.114,1.114,0,0,1,.636-.934c.538-.253,5.248-2.6,5.147-7.036-.02-.879-.23-1.437-.624-1.659-.579-.325-1.692-.047-3.132.785a1.019,1.019,0,0,1-1.528-.923c.287-7.386.382-14.171.4-16.061l-37.4-.41c.2,2.039.949,9.2,2.3,16.261a.905.905,0,0,1-.369.9,1.075,1.075,0,0,1-1.127.081c-1.319-.72-2.342-.945-2.881-.633-.388.224-.595.781-.615,1.653-.083,3.672,3.087,5.891,4.455,6.674a1.127,1.127,0,0,1,.566.944c.27,10.7,1.394,14.013,2.29,14.909,2.588,2.588,12.2,4.1,20.164,3.181a.52.52,0,1,1,.12,1.033,44.177,44.177,0,0,1-5.063.282" transform="translate(-260.73 -15.882)" fill="#0e2549"/>
        <path id="Path_1892" data-name="Path 1892" d="M428.388,584.048l-.271,58.5v0l-.029,6.195v0l-.11,24L427.853,700q-8.243.335-16.469.125c-.586-.011-1.172-.029-1.758-.048q-9.033-.286-18.084-1.191L385.35,629.32l-5.641,68.148a352.6,352.6,0,0,1-37.9-7.583V582.029l2.227.052.063,0,8.916.2,4.869.114,14.231.333,31.089.725,5.9.136Z" transform="translate(-222.177 -378.318)"/>
        <path id="Path_1893" data-name="Path 1893" d="M394.764,210.309h42.172l9.607,40.563-7.6,91.122-51.228-1.051Z" transform="translate(-252.012 -136.701)" fill="#f6881f"/>
        <path id="Path_1894" data-name="Path 1894" d="M415.914,101.449a27.745,27.745,0,0,0,3.5,4.133c2.548,2.494,26.1,1.13,27.752.293,3.647-1.845,2.706-5.04,4.075-4.764,1.695.343-.178,17.024-1.936,19.369s-18.857,3.161-28.039,1.286c-7.627-1.558-5.35-20.317-5.35-20.317" transform="translate(-270.137 -65.712)" fill="#0e2549"/>
        <path id="Path_1895" data-name="Path 1895" d="M571.586,301.319s-16.067,9.729-27.5,9.5c-.392-.008,11.153,116.319,11.153,116.319-2.494-.112-34.955,0-34.955,0-4.638-3.222-2.9-189.747-2.9-189.747-.411-.947,1.272-33.22,1.272-33.22,1.864-1.126,33.3,11.716,33.3,11.716l24.947,63.153c2.722,6.89,1.254,18.872-5.323,22.278" transform="translate(-336.094 -132.666)" fill="#a1c5e2"/>
        <path id="Path_1896" data-name="Path 1896" d="M312.436,427.271H270.1s9.7-84.577,9.324-84.752c-11.867-5.521-29.2-51.152-30.222-53.41a14.432,14.432,0,0,1-.327-11.163l24.037-62.39,30.521-11.219c1.2-.406.857,3.028,1,4.58,4.713,50.493,10.265,216.784,8,218.354" transform="translate(-161.14 -132.797)" fill="#a1c5e2"/>
        <path id="Path_1897" data-name="Path 1897" d="M439.282,83.588a.915.915,0,0,1-.915-.907l-.009-.832a.916.916,0,0,1,.906-.925h.01a.916.916,0,0,1,.915.907l.008.832a.916.916,0,0,1-.906.925h-.01" transform="translate(-284.932 -52.6)" fill="#0e2549"/>
        <path id="Path_1898" data-name="Path 1898" d="M487.513,83.588H487.5a.916.916,0,0,1-.907-.925l.008-.832a.916.916,0,0,1,.916-.907h.009a.916.916,0,0,1,.907.925l-.008.832a.915.915,0,0,1-.915.907" transform="translate(-316.287 -52.6)" fill="#0e2549"/>
        <path id="Path_1899" data-name="Path 1899" d="M487.18,68.45a.688.688,0,0,1-.355-.1,7.553,7.553,0,0,0-5.317-.77.694.694,0,0,1-.368-1.337,8.838,8.838,0,0,1,6.4.916.694.694,0,0,1-.356,1.289" transform="translate(-312.41 -42.905)" fill="#0e2549"/>
        <path id="Path_1900" data-name="Path 1900" d="M414.043,203.04l-13.164,9.713L387.712,207.2l7.371-8.071Z" transform="translate(-252.012 -129.432)" fill="#ec8018"/>
        <path id="Path_1901" data-name="Path 1901" d="M462.942,203.04l12.5,10.869,13.943-9.255-6.515-5.528Z" transform="translate(-300.912 -129.432)" fill="#ec8018"/>
        <path id="Path_1902" data-name="Path 1902" d="M462.942,210.309v0Z" transform="translate(-300.912 -136.701)" fill="#e2474b"/>
        <path id="Path_1903" data-name="Path 1903" d="M439.716,203.648l-7.233-6.137-20.074,3.942L393.262,197.5l-8.068,8.833,14.119,5.957,12.573-9.276v69.07a.52.52,0,1,0,1.04,0V203.125l11.941,10.38ZM399.171,211.1l-12.216-5.154,6.675-7.309,17.528,3.618Zm33.021-12.473,5.8,4.918L424.952,212.2l-11.4-9.911Z" transform="translate(-250.375 -128.375)"/>
        <path id="Path_1904" data-name="Path 1904" d="M430.985,68.45a.694.694,0,0,1-.356-1.289,8.839,8.839,0,0,1,6.4-.916.694.694,0,0,1-.368,1.337,7.553,7.553,0,0,0-5.317.77.69.69,0,0,1-.355.1" transform="translate(-279.688 -42.905)" fill="#0e2549"/>
        <path id="Path_1905" data-name="Path 1905" d="M449.027,121.188c-.54.8,2.214,3.526,5.413,3.385,5.221-.23,6.839-3.808,5.576-3.555a15.742,15.742,0,0,1-5.515,1.252c-3.372.083-5.112-1.617-5.475-1.082" transform="translate(-291.822 -78.653)" fill="#fff"/>
        <path id="Path_1906" data-name="Path 1906" d="M465.792,652.709l-.05,0a.52.52,0,0,1-.468-.567l2.158-22.528,5.258-1.33,3.023-8.5a.52.52,0,1,1,.98.349l-3.209,9.028L468.4,630.44l-2.089,21.8a.52.52,0,0,1-.517.471" transform="translate(-302.425 -402.629)" fill="#0c0c0c"/>
        <path id="Path_1907" data-name="Path 1907" d="M350.34,561.322s2.8,8.721,4,10.176,5.315,3.082,5.315,3.082L345.8,584.862s-.46-4.785-1.032-7.981c-.3-1.646-2.955-4.6-2.955-4.6a55.635,55.635,0,0,1,3.542-5.421,56.656,56.656,0,0,1,4.986-5.538" transform="translate(-222.177 -364.858)" fill="#fff"/>
        <path id="Path_1908" data-name="Path 1908" d="M360.065,571.543a.52.52,0,0,0-.728-.108l-.938.7c-1.272-.526-3.99-1.79-4.838-2.821-.931-1.131-3.136-7.606-3.907-10.005l-.27-.84-.6.643c-.08.085-.224.229-.416.422a50.823,50.823,0,0,0-4.608,5.162,56.566,56.566,0,0,0-3.578,5.478l-.182.325.249.276c.712.791,2.609,3.113,2.829,4.344.562,3.138,1.022,7.891,1.027,7.939l.088.917,15.348-11.388h0l.422-.313a.52.52,0,0,0,.108-.728m-18.8-1.183a56.032,56.032,0,0,1,3.322-5.045,48.573,48.573,0,0,1,4.339-4.877c.755,2.291,2.784,8.264,3.829,9.534.929,1.129,3.367,2.3,4.675,2.877l-12.39,9.193c-.163-1.554-.525-4.769-.945-7.11-.267-1.489-2.121-3.75-2.83-4.572" transform="translate(-220.996 -363.002)" fill="#0e2549"/>
        <path id="Path_1909" data-name="Path 1909" d="M332.121,464.4a.521.521,0,0,1-.473-.736c3.209-7.047,11.178-15.017,12.719-16.521l-15.385-40.863.091-.2,6.771-14.766a.52.52,0,1,1,.945.434l-6.68,14.568,15.474,41.1-.249.238c-.093.089-9.338,8.971-12.739,16.44a.52.52,0,0,1-.474.3" transform="translate(-213.838 -254.159)" fill="#0e2549"/>
        <path id="Path_1910" data-name="Path 1910" d="M461.107,90.912A.533.533,0,0,1,461,90.9c-.5-.106-2.983-.708-3.24-2.1-.2-1.062-.084-1.349,1.287-4.865.3-.769.662-1.7,1.1-2.832a.52.52,0,0,1,.971.373c-.436,1.136-.8,2.067-1.1,2.837-1.336,3.429-1.371,3.549-1.232,4.3.093.508,1.474,1.065,2.434,1.271a.52.52,0,0,1-.108,1.029" transform="translate(-297.493 -52.501)" fill="#0e2549"/>
        <path id="Path_1911" data-name="Path 1911" d="M434.451,73.93l.061.924c.014.207.029.425.045.65a7.788,7.788,0,0,0-2.175.01c.016-.229.032-.45.046-.66l.061-.924H416.993l.091.95c.183,1.9.9,8.221,2.381,9.541.863.767,3.351,1.2,5.8,1.2,2.3,0,4.558-.384,5.413-1.238.8-.8,1.284-4.163,1.556-7.087a6.066,6.066,0,0,1,2.468-.017c.271,2.928.751,6.3,1.557,7.1.854.854,3.116,1.238,5.413,1.238,2.449,0,4.938-.436,5.8-1.2,1.485-1.321,2.2-7.637,2.382-9.541l.091-.95Zm-13.833,9.2c-.6-.53-1.322-4.108-1.707-7.462h11.72c-.009.121-.02.243-.03.364a4.279,4.279,0,0,0-.664.363.865.865,0,0,0,.481,1.57c-.271,2.526-.639,4.761-.965,5.2-1.108,1.108-7.816.87-8.835-.035m25.7,0c-1.018.905-7.727,1.143-8.817.055-.343-.459-.721-2.755-.994-5.326l.081.033a.867.867,0,0,0,.712-1.581c-.334-.151-.658-.276-.974-.383-.007-.086-.014-.174-.021-.26h11.72c-.385,3.353-1.111,6.931-1.707,7.462" transform="translate(-271.045 -48.054)" fill="#e2474b"/>
        <path id="Path_1912" data-name="Path 1912" d="M379.675,196.923l-16.258,14.147,12.137,5.285-8.7,14.459,16.7,38.347Z" transform="translate(-236.221 -128)" fill="#fff"/>
        <path id="Path_1913" data-name="Path 1913" d="M382.444,269.986,364.485,228.75l8.531-14.181-12.347-5.377L378.35,193.8Zm-16.791-41.16L381.1,264.284l-3.669-68.3L362.594,208.9l11.926,5.193Z" transform="translate(-234.434 -125.972)" fill="#0e2549"/>
        <path id="Path_1914" data-name="Path 1914" d="M518.445,197.988l16.934,13.331-11.758,6.567,9.3,13.322-14.471,38.646Z" transform="translate(-336.988 -128.692)" fill="#fff"/>
        <path id="Path_1915" data-name="Path 1915" d="M516.957,270.738V194.927L535.346,209.4l-11.937,6.668,9.123,13.075-.1.256ZM518,197.07v67.923l13.368-35.7-9.468-13.57,11.579-6.467Z" transform="translate(-336.021 -126.702)" fill="#0e2549"/>
        <path id="Path_1916" data-name="Path 1916" d="M547.674,466.964c-11.552,6.027-18.247,9.635-20.251,9.756-1.745.106-2.761-5.1-6.881-4.541l3.108,5.685c-2.736.544-9.353,1.159-9.077,1.465l7.019,3.611-3.621,4.356,5.918-1.778-6.226,5.238,8.639-.914-6.061,5.194,10.272-2.763a.858.858,0,0,0,.54-.433c.727-1.391,3.555-6.681,4.845-7.266s5.133-1.435,10.259-2.5c15.379-3.189,20.321-24.923,1.516-15.113" transform="translate(-334.466 -301.886)" fill="#fff"/>
        <path id="Path_1917" data-name="Path 1917" d="M516.828,495.169l6.568-5.629-8.668.917,5.553-4.672-5.1,1.533,4.362-5.248-6.491-3.339-.294-.328.11-.344c.168-.453.311-.511,4.789-1.1,1.407-.184,2.852-.373,3.958-.558l-3.126-5.717.806-.11c2.846-.384,4.368,1.647,5.479,3.131.525.7,1.065,1.434,1.444,1.406,1.674-.1,7.592-3.2,16.549-7.878l3.476-1.816c6.691-3.491,9.91-2.822,11.431-1.645,1.417,1.1,1.892,3.017,1.34,5.409-1.118,4.841-6.375,10.829-13.915,12.393-4.4.912-8.8,1.853-10.141,2.459-.707.321-2.591,3.206-4.58,7.016a1.426,1.426,0,0,1-.891.714Zm10.029-7.121-5.552,4.758,7.888-2.122a.3.3,0,0,0,.19-.151c1.329-2.544,3.759-6.9,5.11-7.517,1.307-.592,4.794-1.379,10.376-2.536,7.084-1.469,12.011-7.047,13.051-11.549.448-1.941.117-3.458-.934-4.271-1.034-.8-3.737-1.634-10.229,1.751l-3.475,1.815c-9.728,5.086-15.088,7.887-17,8-.985.062-1.641-.827-2.407-1.853-.9-1.208-1.911-2.555-3.578-2.714l3.036,5.551-.747.149c-1.177.234-3.011.474-4.784.706-.943.124-2.015.264-2.833.388l6.326,3.255-2.879,3.464,6.732-2.023-6.9,5.8Z" transform="translate(-333.29 -300.837)" fill="#0e2549"/>
        <path id="Path_1918" data-name="Path 1918" d="M413.92,398.431,416.877,461h42.788l-2.466-62.57Z" transform="translate(-269.048 -258.979)" fill="#ebf4fe"/>
        <path id="Path_1919" data-name="Path 1919" d="M459.194,460.555H415.368l-.023-.5-2.982-63.115h44.324Zm-42.833-1.041h41.751l-2.425-61.53H413.453Z" transform="translate(-268.035 -258.014)" fill="#0e2549"/>
        <path id="Path_1920" data-name="Path 1920" d="M529.9,516.947s-4.922,8.675-8.246,8.292c-2.614-.3,2.591-5.16,1.829-5.6-.615-.357-6.9,6.479-8.626,4.684s7.431-8.268,6.963-9.1c-.448-.8-9.4,8.15-10.828,5.386-1.21-2.339,9.784-8.18,9.421-9.231-.315-.913-7.733,3.6-9.034,1.6-1.209-1.859,13.964-7.842,12.2-7.688Z" transform="translate(-332.086 -328.431)" fill="#fff"/>
        <path id="Path_1921" data-name="Path 1921" d="M519.329,526.552a1.149,1.149,0,0,1-1.116-.55c-.435-.805.3-1.946,1.551-3.729l.159-.226c-.169.138-.338.277-.5.409-2.532,2.084-5.684,4.677-7.182,3.122a1.348,1.348,0,0,1-.373-.995c.037-1.373,1.855-3.262,4.311-5.576-2.977,2.25-5.374,3.849-6.879,3.511a1.479,1.479,0,0,1-1.018-.789c-.891-1.723,2.021-4,6.232-7.019.811-.582,1.744-1.252,2.386-1.771-.418.145-.9.327-1.324.491-2.625,1-5.6,2.134-6.824.786a1.08,1.08,0,0,1-.262-.954c.309-1.574,4.125-3.691,10.184-6.6.691-.331,1.344-.645,1.5-.738a.559.559,0,0,1,.78.8c-.125.143-.259.215-1.792.95-1.606.77-4.033,1.934-6.09,3.116-3.436,1.973-3.482,2.671-3.482,2.7.7.758,3.764-.408,5.592-1.1s2.648-.99,3.169-.747a.726.726,0,0,1,.383.421c.264.768-.645,1.466-3.562,3.56-2.08,1.493-6.407,4.6-5.891,5.6a.366.366,0,0,0,.269.211c1.258.284,4.717-2.358,6.78-3.936,2.241-1.715,2.816-2.108,3.328-2a.662.662,0,0,1,.444.322c.374.67-.28,1.327-2.609,3.5-1.781,1.663-4.471,4.177-4.5,5.3a.228.228,0,0,0,.061.189c.781.812,4.2-2.007,5.665-3.209,1.714-1.412,2.294-1.888,2.839-1.57a.7.7,0,0,1,.337.464c.114.521-.312,1.156-1.21,2.431a10.237,10.237,0,0,0-1.471,2.508.94.94,0,0,0,.164.006c2.514-.084,6.952-6.434,8.153-9.093a.56.56,0,1,1,1.02.461c-.882,1.952-5.585,9.632-9.136,9.751h-.08m.78-20.566h0" transform="translate(-330.279 -328.766)" fill="#0e2549"/>
        <path id="Path_1922" data-name="Path 1922" d="M604.14,452.861c-3.933,6.75-17.789,18.033-36.3,19.319l-2.895-5.728-4.406-6.706,15.238-15.586s31.594,3.154,28.361,8.7" transform="translate(-364.351 -288.703)" fill="#a1c5e2"/>
        <path id="Path_1923" data-name="Path 1923" d="M579.842,407.209a.662.662,0,0,0-.93-.107l-.874.694-8-16.487a.52.52,0,1,0-.936.454l8.1,16.695-20.315,16.115-.061.055a1.035,1.035,0,0,0-.05,1.462c3.179,3.33,6.953,8.171,7.126,10.856a1.533,1.533,0,0,0,.69,1.22,2.86,2.86,0,0,0,1.58.378,10.471,10.471,0,0,0,2.992-.558.662.662,0,1,0-.424-1.254c-1.048.354-2.858.706-3.412.335a.224.224,0,0,1-.105-.207c-.236-3.666-5.354-9.418-7.265-11.447l21.776-17.274a.662.662,0,0,0,.107-.93" transform="translate(-361.723 -254.159)" fill="#0e2549"/>
        <path id="Path_1924" data-name="Path 1924" d="M508.894,318.791V332.27l20.726.041v-13.52Z" transform="translate(-330.78 -207.214)" fill="#fff"/>
        <path id="Path_1925" data-name="Path 1925" d="M535.395,312.7h-8.467v-.722a2.557,2.557,0,0,1,2.557-2.557h3.352a2.557,2.557,0,0,1,2.557,2.557Z" transform="translate(-342.502 -201.123)" fill="#fff"/>
        <path id="Path_1926" data-name="Path 1926" d="M523.225,311.215v-.2a3.081,3.081,0,0,0-3.077-3.078H516.8a3.081,3.081,0,0,0-3.078,3.078v.2h-6.312v14.518l21.767.043V311.215Zm-8.467-.2a2.039,2.039,0,0,1,2.037-2.037h3.353a2.039,2.039,0,0,1,2.037,2.037v.2h-7.427Zm13.375,13.721-19.686-.039v-12.44h19.686Z" transform="translate(-329.813 -200.157)" fill="#0e2549"/>
        <path id="Path_1927" data-name="Path 1927" d="M520.657,330.759h0Z" transform="translate(-338.426 -214.993)" fill="#e2474b"/>
        <path id="Path_1928" data-name="Path 1928" d="M532.706,330.314H519.69a.52.52,0,0,1,0-1.041h13.016a.52.52,0,0,1,0,1.041" transform="translate(-337.46 -214.027)" fill="#0e2549"/>
        <path id="Path_1929" data-name="Path 1929" d="M526.213,341.019h0Z" transform="translate(-342.038 -221.662)" fill="#e2474b"/>
        <path id="Path_1930" data-name="Path 1930" d="M533.964,340.573h-8.716a.52.52,0,1,1,0-1.041h8.716a.52.52,0,0,1,0,1.041" transform="translate(-341.072 -220.695)" fill="#0e2549"/>
        <path id="Path_1931" data-name="Path 1931" d="M435.623,4.043C431.67,2.1,424.333,1.1,418.36.455,407.852-.674,390.377-.3,401.375,8.729c9.069,7.448,27.191,3.71,33.271,2.169,10.63,9.008,5.715,22.024,8.276,10.657C446.131,7.3,440,4.408,435.623,4.043" transform="translate(-258.616 0)" fill="#0e2549"/>
      </g>
    </g>
    <g id="Group_1812" data-name="Group 1812" transform="translate(-314.54 32.436)">
      <g id="Group_1811" data-name="Group 1811" transform="translate(0 0)" clip-path="url(#clip-path)">
        <path id="Path_1776" data-name="Path 1776" d="M269.445,379.152a21.758,21.758,0,0,1-8.926-1.873c-13.8-6.124-18.987-25.165-15.416-56.6,2.788-24.543,10.215-51.315,15.955-69.453a17.7,17.7,0,0,1,9.516-10.871,14.745,14.745,0,0,1,12.162-.148l7.571,3.359-2.188,4.9-7.571-3.359a9.419,9.419,0,0,0-7.764.137,12.324,12.324,0,0,0-6.594,7.593c-5.668,17.912-13,44.326-15.739,68.442-1.529,13.457-1.409,24.562.356,33,1.958,9.364,5.962,15.448,11.9,18.083s13.15,1.527,21.435-3.291c7.47-4.345,15.821-11.69,24.82-21.832,16.128-18.176,30.892-41.291,40.438-57.482a12.285,12.285,0,0,0,1.24-9.969,9.379,9.379,0,0,0-5.1-5.844l-6.622-2.938,2.188-4.9,6.622,2.938a14.682,14.682,0,0,1,8.032,9.109,17.643,17.643,0,0,1-1.726,14.328c-9.666,16.395-24.634,39.821-41.047,58.319-16.729,18.853-31.328,28.343-43.548,28.343" transform="translate(-172.779 -169.397)" fill="#2e6b99"/>
        <path id="Path_1777" data-name="Path 1777" d="M539.266,321.805l1.531.679a3.517,3.517,0,0,0,4.625-1.772l4.711-10.559a3.5,3.5,0,0,0-1.777-4.612l-1.53-.679a3.517,3.517,0,0,0-4.625,1.772l-4.711,10.559a3.5,3.5,0,0,0,1.777,4.612" transform="translate(-380.374 -215.892)" fill="#0e2549"/>
        <path id="Path_1778" data-name="Path 1778" d="M390.641,255.677l1.53.679a3.517,3.517,0,0,0,4.625-1.772l4.711-10.559a3.5,3.5,0,0,0-1.777-4.612l-1.53-.679a3.517,3.517,0,0,0-4.625,1.772l-4.711,10.559a3.5,3.5,0,0,0,1.776,4.612" transform="translate(-275.136 -169.016)" fill="#0e2549"/>
        <path id="Path_1779" data-name="Path 1779" d="M252.579,802.391a17.8,17.8,0,0,1-11.993-4.348c-9.385-8.082-12.813-27.411-10.19-57.45a350.682,350.682,0,0,1,6.452-41.829,3.28,3.28,0,0,1,6.4,1.455,343.593,343.593,0,0,0-6.318,41.008c-1.081,12.417-1.1,23.006-.046,31.473,1.245,10.034,3.935,16.9,7.994,20.391,3.9,3.355,9.264,3.64,16.411.873,10.286-3.983,11.891-9.891,13.749-16.731,2.092-7.7,4.462-16.426,19.274-20.929a3.273,3.273,0,1,1,1.913,6.26c-11.341,3.447-12.891,9.154-14.854,16.38-2.03,7.471-4.33,15.94-17.707,21.12a30.926,30.926,0,0,1-11.081,2.327" transform="translate(-162.535 -493.522)" fill="#0e2549"/>
        <path id="Path_1780" data-name="Path 1780" d="M446.7,816.648a24.355,24.355,0,1,1-2.788,34.291,24.437,24.437,0,0,1,2.788-34.291" transform="translate(-310.214 -574.785)" fill="#2e6b99"/>
        <path id="Path_1781" data-name="Path 1781" d="M470.937,839.161A16.933,16.933,0,1,1,469,863a16.99,16.99,0,0,1,1.939-23.842" transform="translate(-329.231 -591.994)" fill="#fff"/>
        <path id="Path_1782" data-name="Path 1782" d="M480.917,868.353q-.714,0-1.434-.058a17.325,17.325,0,0,1-9.853-30.491h0a17.357,17.357,0,1,1,11.288,30.549m-.056-33.831a16.435,16.435,0,0,0-10.681,3.927h0a16.566,16.566,0,1,0,12.045-3.871c-.455-.037-.911-.055-1.363-.055m-10.956,3.6h0Z" transform="translate(-328.198 -590.959)" fill="#0e2549"/>
        <path id="Path_1783" data-name="Path 1783" d="M249.917,84.874,271.919,0,255.552,82.842Z" transform="translate(-176.962 0.002)" fill="#0e2549"/>
        <path id="Path_1938" data-name="Path 1938" d="M0,0,157.071.094l.042,69.947L.042,69.947Z" transform="matrix(0.23, -0.973, 0.973, 0.23, 1.889, 243.36)" fill="#fff"/>
        <path id="Path_1784" data-name="Path 1784" d="M73.613,479.041,4.687,462.8,41.081,309.121l68.926,16.235-.1.42ZM5.729,462.163,72.969,478l36-152L41.725,310.16Z" transform="translate(-3.319 -219.124)" fill="#0e2549"/>
        <path id="Path_1939" data-name="Path 1939" d="M0,0,25.62.015l.008,14.209L.008,14.209Z" transform="translate(65.21 96.907) rotate(-76.711)" fill="#d2ebfc"/>
        <path id="Path_1785" data-name="Path 1785" d="M236.295,274.68l-14.657-3.452,6.1-25.754,14.657,3.452ZM222.659,270.6l13,3.063,5.709-24.107-13.005-3.063Z" transform="translate(-156.938 -174.007)" fill="#0e2549"/>
        <path id="Path_1786" data-name="Path 1786" d="M196.762,429.22a.8.8,0,0,1-.185-.022l-35.346-8.34a.8.8,0,1,1,.369-1.556l35.346,8.34a.8.8,0,0,1-.184,1.578" transform="translate(-113.728 -297.211)" fill="#0e2549"/>
        <path id="Path_1787" data-name="Path 1787" d="M181.019,495.528a.8.8,0,0,1-.185-.022l-35.346-8.341a.8.8,0,1,1,.369-1.556l35.346,8.341a.8.8,0,0,1-.184,1.578" transform="translate(-102.58 -344.215)" fill="#0e2549"/>
        <path id="Path_1788" data-name="Path 1788" d="M216.3,398.836a.8.8,0,0,1-.185-.022l-19-4.483a.8.8,0,1,1,.369-1.556l19,4.483a.8.8,0,0,1-.184,1.577" transform="translate(-139.136 -278.407)" fill="#0e2549"/>
        <path id="Path_1789" data-name="Path 1789" d="M200.606,465.156a.792.792,0,0,1-.185-.022l-19-4.483a.8.8,0,1,1,.369-1.556l19,4.483a.8.8,0,0,1-.184,1.577" transform="translate(-128.025 -325.419)" fill="#0e2549"/>
        <path id="Path_1790" data-name="Path 1790" d="M165.354,561.855a.79.79,0,0,1-.185-.022l-35.346-8.34a.8.8,0,1,1,.369-1.556l35.346,8.34a.8.8,0,0,1-.184,1.577" transform="translate(-91.488 -391.232)" fill="#0e2549"/>
        <path id="Path_1791" data-name="Path 1791" d="M104.3,733.462a.791.791,0,0,1-.185-.022L68.769,725.1a.8.8,0,1,1,.369-1.556l35.346,8.34a.8.8,0,0,1-.184,1.577" transform="translate(-48.257 -512.877)" fill="#0e2549"/>
        <path id="Path_1792" data-name="Path 1792" d="M184.888,531.471a.8.8,0,0,1-.185-.022l-19-4.483a.8.8,0,1,1,.369-1.556l19,4.483a.8.8,0,0,1-.184,1.578" transform="translate(-116.895 -372.427)" fill="#0e2549"/>
        <path id="Path_1793" data-name="Path 1793" d="M126.888,699.093a.8.8,0,0,1-.185-.022l-19-4.483a.8.8,0,1,1,.369-1.556l19,4.483a.8.8,0,0,1-.184,1.577" transform="translate(-75.826 -491.249)" fill="#0e2549"/>
        <path id="Path_1794" data-name="Path 1794" d="M109.105,777.92a.788.788,0,0,1-.185-.022l-19-4.483a.8.8,0,1,1,.369-1.556l19,4.483a.8.8,0,0,1-.184,1.577" transform="translate(-63.235 -547.126)" fill="#0e2549"/>
        <path id="Path_1795" data-name="Path 1795" d="M160.532,598.375a.793.793,0,0,1-.185-.022l-19-4.483a.8.8,0,1,1,.369-1.556l19,4.483a.8.8,0,0,1-.184,1.577" transform="translate(-99.649 -419.854)" fill="#0e2549"/>
        <path id="Path_1940" data-name="Path 1940" d="M0,0,9.959.006,10,73.777.044,73.771Z" transform="translate(0.51 250.007) rotate(-76.711)" fill="#d2ebfc"/>
        <path id="Path_1796" data-name="Path 1796" d="M72.632,851.309,0,834.2l2.49-10.515,72.632,17.109ZM1.021,833.571,72,850.29l2.1-8.868L3.121,824.7Z" transform="translate(0 -583.878)" fill="#0e2549"/>
      </g>
    </g>
    <g id="Group_1815" data-name="Group 1815" transform="translate(-405.608 87.62)">
      <path id="Path_1797" data-name="Path 1797" d="M98.281,723.344l12.372,24.125L121.51,732,109.9,710.353Z" transform="translate(-66.295 -479.167)" fill="#fff"/>
      <path id="Path_1798" data-name="Path 1798" d="M109.382,746.667,96.493,721.534l12.3-13.753L120.87,730.3ZM97.657,721.683,109.511,744.8l10.224-14.565-11.147-20.779Z" transform="translate(-65.089 -477.431)" fill="#0e2549"/>
      <path id="Path_1799" data-name="Path 1799" d="M229.591,347.9l1.443-26.33h28.551l8.372,30.661Z" transform="translate(-154.87 -216.914)" fill="#fff"/>
      <g id="Group_1814" data-name="Group 1814">
        <g id="Group_1813" data-name="Group 1813" clip-path="url(#clip-path-2)">
          <path id="Path_1800" data-name="Path 1800" d="M152.846.229A40.129,40.129,0,0,1,182.5,15.136c12.079,15.161,11.182,17.98,8.174,28.978s-5.08,17.611,3.258,22.344,8.837,9.863,10.365,13.825-4.747,13.657-2.808,18.436c7,17.246,7.648,25.789,7.648,25.789L89.57,128.2S87.687,107.832,90.6,99.573c1.966-5.563,14.09-13.805,15.019-20.551C106.258,74.413,100,62.484,103,57.01c5.481-9.988,10.511-9.943,8.718-20.845C110.76,30.324,115.1-3.072,152.846.229" transform="translate(-60.016 0)" fill="#0e2549"/>
          <path id="Path_1801" data-name="Path 1801" d="M189.918,183.749s1.359,33.4.084,35.16c-4.365,6.015-17.3,11.308-20.249,12.1S213.7,274.15,213.7,274.15l28.908-34.857-9.478-8.553s-7.967-4.007-11.469-7.623-5.2-37.6-5.2-37.6Z" transform="translate(-114.416 -123.947)" fill="#fff"/>
          <path id="Path_1802" data-name="Path 1802" d="M212.732,273.773l-.375-.338c-.112-.1-11.308-10.214-22.282-20.521-22.4-21.038-22.088-22.339-21.938-22.965a.65.65,0,0,1,.472-.479c3.4-.914,15.859-6.238,19.983-11.92.847-1.415.342-22.132-.175-34.856l-.022-.538,27.506,1.833.022.43c.471,9.4,2.3,34.428,5.068,37.288,3.4,3.516,11.26,7.489,11.338,7.528l.058.029,9.871,8.906Zm-43.582-43.451c1.48,3.355,27.039,27.2,43.482,42.057l28.29-34.112-9.085-8.2c-.791-.4-8.142-4.179-11.541-7.69s-5.1-33.344-5.317-37.482l-25.574-1.7c.266,6.659,1.241,33.176-.03,34.926-4.372,6.025-16.809,11.18-20.225,12.2" transform="translate(-113.398 -122.873)" fill="#0e2549"/>
          <path id="Path_1803" data-name="Path 1803" d="M210.465,109.221c-3.925-2.6-10.813-7.872-11-13.014s5.679-4.54,7.469-3.728c1.192.541-.025-25.174-.025-25.174l39.79-2.13s5.9,22.108,4.472,36.3c-1.429,14.256-7.965,17.944-18.338,18.408a24.258,24.258,0,0,1-12.37-2.513Z" transform="translate(-134.547 -43.964)" fill="#fff"/>
          <path id="Path_1804" data-name="Path 1804" d="M230.524,119.356a24.549,24.549,0,0,1-11.28-2.6.484.484,0,1,1,.439-.861,23.992,23.992,0,0,0,12.128,2.461c9.693-.433,16.443-3.655,17.878-17.973,1.3-12.936-3.6-32.769-4.36-35.752l-38.915,2.084c.071,1.564.295,6.7.426,11.847.323,12.67-.182,13.012-.551,13.263a.566.566,0,0,1-.556.048c-1.04-.472-3.8-.913-5.469.205a3.276,3.276,0,0,0-1.317,3.065c.175,4.88,6.83,10.006,10.782,12.628a.484.484,0,1,1-.535.806c-4.106-2.724-11.022-8.088-11.213-13.4a4.183,4.183,0,0,1,1.746-3.9c1.822-1.221,4.593-.923,6.019-.434.5-2.343.084-16.027-.32-24.559l-.022-.48,40.661-2.177.1.379c.059.222,5.9,22.356,4.486,36.477-.695,6.93-2.649,11.735-5.975,14.689-2.935,2.607-6.89,3.888-12.823,4.153q-.671.03-1.33.03" transform="translate(-133.544 -42.919)" fill="#0e2549"/>
          <path id="Path_1805" data-name="Path 1805" d="M642.937,411.235c-6.393,2.93-32.783,26.5-32.783,26.5l16.682,9.772s16.33-25.148,18.854-25.274c4.743-.235,18.888,1.391,23.724-1.288,7.316-4.052,11.395-9.657,10.724-11.566-.362-1.03-12.974,5.151-15.614,5-7.455-.435-17.03-5.226-21.587-3.138" transform="translate(-411.577 -276.065)" fill="#fff"/>
          <path id="Path_1806" data-name="Path 1806" d="M625.3,447.165l-17.653-10.341.5-.442c1.08-.964,26.518-23.648,32.9-26.575,2.864-1.314,7.428-.1,12.26,1.177a51.227,51.227,0,0,0,9.556,1.917c1.222.068,5.265-1.53,8.514-2.817,4.684-1.854,6.517-2.525,7.191-2.219a.625.625,0,0,1,.337.362c.828,2.357-3.774,8.177-10.946,12.149-3.621,2.005-12.107,1.683-18.3,1.449-2.331-.088-4.344-.165-5.631-.1-1.522.22-10.589,12.911-18.473,25.054Zm-16.017-10.5,15.71,9.2c.958-1.467,4.5-6.866,8.237-12.217,8.932-12.8,10.2-12.863,10.747-12.89,1.328-.065,3.361.011,5.715.1,6.083.231,14.413.546,17.8-1.328,7.03-3.893,10.707-9.042,10.545-10.774a45.512,45.512,0,0,0-6.3,2.228c-3.684,1.458-7.494,2.967-8.926,2.883a51.862,51.862,0,0,1-9.748-1.948c-4.659-1.235-9.06-2.4-11.61-1.233l-.2-.439.2.439c-5.775,2.647-28.507,22.728-32.166,25.976" transform="translate(-409.883 -275.076)" fill="#0e2549"/>
          <path id="Path_1807" data-name="Path 1807" d="M138.746,322.784c14.463,11.464,37.4,62.84,42,60.667,4.33-2.045,30.23-26.08,30.23-26.08l19.07,14.753S192,425.668,169.925,422.113c-15.727-2.533-32.961-41.46-32.961-41.46l-2.5,56.466L61.344,438.14,49.8,376.281l-17.321,31.6,16.909,39.845L32.476,469.584S0,436.229,0,407.882c0-15.324,24.607-71.689,34.909-82.275,6.975-7.168,16.9-8.091,20.3-8.1,3.513-.006,25.193-2.083,26.44,0,.773,1.29,14.937,27.309,15.794,27.685,2.818,1.236,8.176-28.393,8.176-28.393,6.1-.888,29.211,2.881,33.122,5.98" transform="translate(-0.001 -213.551)" fill="#f6881f"/>
          <path id="Path_1808" data-name="Path 1808" d="M240.88,732.039a231.115,231.115,0,0,1-25.362,9.142c-35.673,10.2-65.058,6.656-86.06-7.245q.68-2.989,1.4-5.777l.184-.7.014-.055.007-.007a191.666,191.666,0,0,1,6.969-21.5c5.59-14.187,10.484-20.655,10.484-20.655l73.311-1.144,0,0c.085.163,1.5,2.868,3.6,7.783s4.9,12.044,7.759,21.057c.245.78,4.748,11.806,7.691,19.1" transform="translate(-87.325 -461.453)" fill="#231f20"/>
          <path id="Path_1809" data-name="Path 1809" d="M329.106,137.382a1.193,1.193,0,0,1-1.181-1.037l-.17-1.293a1.192,1.192,0,1,1,2.364-.311l.17,1.293a1.192,1.192,0,0,1-1.026,1.338,1.166,1.166,0,0,1-.157.01" transform="translate(-221.079 -90.19)" fill="#0e2549"/>
          <path id="Path_1810" data-name="Path 1810" d="M274.757,139.76a1.192,1.192,0,0,1-1.18-1.037l-.17-1.293a1.192,1.192,0,1,1,2.364-.311l.17,1.293a1.192,1.192,0,0,1-1.026,1.338,1.167,1.167,0,0,1-.157.01" transform="translate(-184.419 -91.794)" fill="#0e2549"/>
          <path id="Path_1811" data-name="Path 1811" d="M254.783,125.292a.645.645,0,0,1-.23-1.247c8.142-3.1,11.722-1.5,11.87-1.432a.645.645,0,0,1-.543,1.17c-.06-.026-3.354-1.4-10.868,1.467a.647.647,0,0,1-.229.042" transform="translate(-171.428 -82.388)" fill="#0e2549"/>
          <path id="Path_1812" data-name="Path 1812" d="M312.739,135.665a.645.645,0,0,1-.159-1.27c.391-.106,2.769-1.284,3.258-2.362a.531.531,0,0,0,.023-.495c-1.027-2.1-4.309-9.1-3.4-11.229a1.231,1.231,0,0,1,.768-.725c7.8-2.488,10.285-.534,10.542-.3a.645.645,0,0,1-.85.97c-.063-.048-2.273-1.673-9.271.553-.387.6.558,4.424,3.372,10.168a1.82,1.82,0,0,1-.014,1.61c-.763,1.654-3.653,2.948-4.105,3.064a.649.649,0,0,1-.16.02" transform="translate(-210.523 -79.822)" fill="#0e2549"/>
          <path id="Path_1813" data-name="Path 1813" d="M269.025,433.276a.484.484,0,0,1-.483-.465l-3.336-86.556c-.83-1.4-9.633-16.29-15.741-27.6a.484.484,0,0,1,.851-.46c6.374,11.8,15.691,27.511,15.785,27.669l.063.105,0,.123,3.341,86.678a.484.484,0,0,1-.465.5h-.019" transform="translate(-168.236 -214.469)" fill="#0e2549"/>
          <path id="Path_1814" data-name="Path 1814" d="M252.8,62.877s-36.246,10.369-42.623,28.16a10.043,10.043,0,0,0-3.909-.724,4.83,4.83,0,0,0-2.789.983l1.11-29.527Z" transform="translate(-137.253 -41.666)" fill="#0e2549"/>
          <path id="Path_1815" data-name="Path 1815" d="M292.188,183.644s8.69,7.39,12.764-.86a5.111,5.111,0,0,0-4.91.084s-3.084-.944-7.854.776" transform="translate(-197.094 -122.909)" fill="#e2474b"/>
          <rect id="Rectangle_2614" data-name="Rectangle 2614" width="21.282" height="12.038" transform="translate(111.345 145.396)" fill="#fff"/>
          <path id="Path_1816" data-name="Path 1816" d="M362.885,458.268h-22.25V445.262h22.25ZM341.6,457.3h20.315V446.229H341.6Z" transform="translate(-229.774 -300.35)" fill="#0e2549"/>
        </g>
      </g>
    </g>
  </g>
</svg>
