<svg xmlns="http://www.w3.org/2000/svg" width="43.894" height="50" viewBox="0 0 43.894 50">
  <g id="file" transform="translate(-31.264)">
    <g id="Group_4" data-name="Group 4" transform="translate(31.996 0.732)">
      <path id="Path_359" data-name="Path 359" d="M42.659,53.2a3.9,3.9,0,0,1-3.9-3.906V11.407a3.9,3.9,0,0,1,3.9-3.906H59.331a2.917,2.917,0,0,1,2.068.86L72.481,19.5a2.934,2.934,0,0,1,.853,2.069V48.614a4.59,4.59,0,0,1-4.59,4.59Z" transform="translate(-38.764 -7.501)" fill="#f9f8f9"/>
      <path id="Path_360" data-name="Path 360" d="M45.59,53.2h-2.93a3.9,3.9,0,0,1-3.9-3.906V11.4a3.9,3.9,0,0,1,3.9-3.906h2.93a3.9,3.9,0,0,0-3.9,3.906V49.293A3.9,3.9,0,0,0,45.59,53.2Z" transform="translate(-38.765 -7.496)" fill="#e3e0e4"/>
      <g id="Group_3" data-name="Group 3" transform="translate(4.638 13.182)">
        <path id="Path_361" data-name="Path 361" d="M101.062,143.946H88.99a.732.732,0,0,1,0-1.465h12.071a.732.732,0,1,1,0,1.465Z" transform="translate(-88.063 -142.481)" fill="#a29aa5"/>
        <path id="Path_362" data-name="Path 362" d="M105.945,323.987H88.99a.732.732,0,0,1,0-1.465h16.954a.732.732,0,1,1,0,1.465Z" transform="translate(-88.063 -304.94)" fill="#a29aa5"/>
        <path id="Path_363" data-name="Path 363" d="M108.852,203.96H86.992a.732.732,0,0,1,0-1.465h21.859a.732.732,0,1,1,0,1.465Z" transform="translate(-86.26 -196.634)" fill="#a29aa5"/>
        <path id="Path_364" data-name="Path 364" d="M108.855,263.974H86.992a.732.732,0,0,1,0-1.465h21.863a.732.732,0,1,1,0,1.465Z" transform="translate(-86.26 -250.787)" fill="#a29aa5"/>
      </g>
      <path id="Path_365" data-name="Path 365" d="M233.208,316.039a2.636,2.636,0,0,0-.777-1.736l-7.06-7.019a2.675,2.675,0,0,0-3.767,0,2.637,2.637,0,0,0,0,3.745l2.512,2.5H209.9a2.649,2.649,0,1,0,0,5.3h14.217l-2.512,2.5a2.637,2.637,0,0,0,0,3.745,2.674,2.674,0,0,0,3.767,0l7.06-7.019A2.64,2.64,0,0,0,233.208,316.039Z" transform="translate(-190.783 -277.308)" fill="#80e29e"/>
      <path id="Path_366" data-name="Path 366" d="M224.11,313.574h1.757a.488.488,0,0,0,.344-.835l-2.447-2.433a3.034,3.034,0,0,1-.45-3.74,2.648,2.648,0,0,0-1.711,4.516Zm-2.507,7.8a2.648,2.648,0,0,0,1.711,4.516,3.034,3.034,0,0,1,.45-3.74L226.1,319.7a.488.488,0,0,0-.353-.826h-1.633Zm-10.384-7.795H209.9a2.648,2.648,0,1,0,0,5.3h1.32a3.042,3.042,0,0,1,0-5.3Z" transform="translate(-190.783 -277.36)" fill="#77d192"/>
      <path id="Path_367" data-name="Path 367" d="M247.587,21.563v1.716H237.443a5.579,5.579,0,0,1-5.568-5.577V7.5h1.708a2.919,2.919,0,0,1,2.068.86l11.082,11.138A2.934,2.934,0,0,1,247.587,21.563Z" transform="translate(-213.016 -7.496)" fill="#e3e0e4"/>
      <path id="Path_368" data-name="Path 368" d="M274.394,22.84h-9.88a2.643,2.643,0,0,1-2.639-2.647V10.256a2.922,2.922,0,0,1,.847.591L273.8,21.985A2.89,2.89,0,0,1,274.394,22.84Z" transform="translate(-240.087 -9.986)" fill="#a29aa5"/>
    </g>
    <g id="Group_5" data-name="Group 5" transform="translate(31.264 0)">
      <path id="Path_369" data-name="Path 369" d="M41.889,265.086h-6a3.172,3.172,0,0,1-3.163-3.174V243.858a.732.732,0,0,0-1.465,0v18.054a4.638,4.638,0,0,0,4.628,4.639h6a.732.732,0,0,0,0-1.465Z" transform="translate(-31.264 -219.383)"/>
      <path id="Path_370" data-name="Path 370" d="M88.99,143.946h12.071a.732.732,0,1,0,0-1.465H88.99a.732.732,0,0,0,0,1.465Z" transform="translate(-82.692 -128.567)"/>
      <path id="Path_371" data-name="Path 371" d="M88.99,322.522a.732.732,0,0,0,0,1.465h16.954a.732.732,0,1,0,0-1.465Z" transform="translate(-82.692 -291.026)"/>
      <path id="Path_372" data-name="Path 372" d="M86.992,203.96h21.859a.732.732,0,0,0,0-1.465H86.992a.732.732,0,1,0,0,1.465Z" transform="translate(-80.889 -182.72)"/>
      <path id="Path_373" data-name="Path 373" d="M86.992,263.974h21.863a.732.732,0,0,0,0-1.465H86.992a.732.732,0,1,0,0,1.465Z" transform="translate(-80.889 -236.873)"/>
      <path id="Path_374" data-name="Path 374" d="M75.153,39.429a3.378,3.378,0,0,0-.992-2.221L67.3,30.386V14.8a3.643,3.643,0,0,0-1.067-2.586L55.15,1.076A3.675,3.675,0,0,0,52.563,0H35.892a4.639,4.639,0,0,0-4.628,4.639V21.057a.732.732,0,0,0,1.465,0V4.639a3.172,3.172,0,0,1,3.163-3.174H52.563a2.194,2.194,0,0,1,.489.057V5.643a.732.732,0,0,0,1.465,0V2.516L64.8,12.853H56.423a1.913,1.913,0,0,1-1.907-1.915V9.061a.732.732,0,0,0-1.465,0v1.878a3.379,3.379,0,0,0,3.371,3.38H65.78a2.222,2.222,0,0,1,.054.481v14.6A3.384,3.384,0,0,0,62.3,34.973l1.253,1.246H59.23a.732.732,0,1,0,0,1.465h6.1a.732.732,0,0,0,.516-1.252l-2.512-2.5a1.914,1.914,0,0,1,0-2.707,1.944,1.944,0,0,1,2.734,0l7.063,7.022a1.916,1.916,0,0,1,0,2.7l-7.061,7.02a1.941,1.941,0,0,1-2.734,0,1.914,1.914,0,0,1,0-2.707l2.512-2.5a.732.732,0,0,0-.516-1.252H51.113a1.916,1.916,0,1,1,0-3.833h4.7a.732.732,0,0,0,0-1.465h-4.7a3.381,3.381,0,1,0,0,6.762H63.554L62.3,44.227a3.358,3.358,0,0,0-.87,1.476H45.307a.732.732,0,1,0,0,1.465H61.349a3.349,3.349,0,0,0,.951,1.843,3.408,3.408,0,0,0,4.8,0L74.158,42a3.382,3.382,0,0,0,1-2.567Z" transform="translate(-31.264 0)"/>
    </g>
  </g>
</svg>
