<svg xmlns="http://www.w3.org/2000/svg" width="27.182" height="26" viewBox="0 0 27.182 26">
  <g id="logout_1_" data-name="logout (1)" transform="translate(0 -0.332)">
    <path id="Path_503" data-name="Path 503" d="M40.227,28.446A12.114,12.114,0,1,1,28.114,16.332,12.114,12.114,0,0,1,40.227,28.446Zm0,0" transform="translate(-15.114 -15.114)" fill="#fff"/>
    <path id="Path_504" data-name="Path 504" d="M167.355,220.773H150.218a.886.886,0,0,1,0-1.773h17.136a.886.886,0,0,1,0,1.773Zm0,0" transform="translate(-141.059 -206.554)" fill="#7a1c68"/>
    <path id="Path_505" data-name="Path 505" d="M154.953,144.88a.88.88,0,0,1-.626-.26l-4.727-4.727a.887.887,0,0,1,0-1.254l4.727-4.727a.887.887,0,1,1,1.254,1.254l-4.1,4.1,4.1,4.1a.886.886,0,0,1-.628,1.513Zm0,0" transform="translate(-141.067 -125.935)" fill="#7a1c68"/>
    <path id="Path_506" data-name="Path 506" d="M13,26.332A13,13,0,1,1,25.1,8.576a.886.886,0,1,1-1.65.649,11.227,11.227,0,1,0,0,8.215.886.886,0,1,1,1.65.649A12.934,12.934,0,0,1,13,26.332Zm0,0" transform="translate(0 0)" fill="#7a1c68"/>
  </g>
</svg>
