<svg xmlns="http://www.w3.org/2000/svg" xmlns:xlink="http://www.w3.org/1999/xlink" width="63.998" height="64" viewBox="0 0 63.998 64">
  <defs>
    <clipPath id="clip-path">
      <rect id="Rectangle_2516" data-name="Rectangle 2516" width="63.998" height="64" fill="#f6881f"/>
    </clipPath>
  </defs>
  <g id="ic_2" transform="translate(0 0)">
    <g id="Group_1651" data-name="Group 1651" transform="translate(0 0)" clip-path="url(#clip-path)">
      <path id="Path_1495" data-name="Path 1495" d="M19.557,27.819a1.418,1.418,0,1,0,2.006,0,1.452,1.452,0,0,0-2.006,0m1.507,1.508a.731.731,0,0,1-1.009,0,.714.714,0,0,1,.505-1.219.707.707,0,0,1,.5.209.715.715,0,0,1,0,1.01" transform="translate(-3.599 -5.154)" fill="#f6881f"/>
      <path id="Path_1496" data-name="Path 1496" d="M23.549,23.823a1.418,1.418,0,1,0,2,0,1.42,1.42,0,0,0-2,0m1.508,1.508a.714.714,0,1,1,0-1.009.714.714,0,0,1,0,1.009" transform="translate(-4.349 -4.4)" fill="#f6881f"/>
      <path id="Path_1497" data-name="Path 1497" d="M28.265,22.534a1.4,1.4,0,0,0,1-.415,1.42,1.42,0,0,0,0-2.006,1.451,1.451,0,0,0-2,0,1.418,1.418,0,0,0,1,2.421m-.5-1.923a.714.714,0,1,1,1.01,1.01.732.732,0,0,1-1.01,0,.715.715,0,0,1,0-1.01" transform="translate(-5.047 -3.705)" fill="#f6881f"/>
      <path id="Path_1498" data-name="Path 1498" d="M16.474,26.152a1.418,1.418,0,1,0-1-.416,1.411,1.411,0,0,0,1,.416m-.5-1.923a.714.714,0,1,1,0,1.009.711.711,0,0,1,0-1.009" transform="translate(-2.83 -4.383)" fill="#f6881f"/>
      <path id="Path_1499" data-name="Path 1499" d="M19.464,19.739a1.418,1.418,0,1,0,2,0,1.417,1.417,0,0,0-2,0m1.507,1.507a.713.713,0,1,1,0-1.009.715.715,0,0,1,0,1.009" transform="translate(-3.581 -3.633)" fill="#f6881f"/>
      <path id="Path_1500" data-name="Path 1500" d="M24.181,18.445a1.417,1.417,0,1,0-1-.415,1.409,1.409,0,0,0,1,.415m-.506-1.922a.714.714,0,1,1,0,1.009.712.712,0,0,1,0-1.009" transform="translate(-4.279 -2.934)" fill="#f6881f"/>
      <path id="Path_1501" data-name="Path 1501" d="M11.526,19.785a1.418,1.418,0,1,0,2,0,1.417,1.417,0,0,0-2,0m1.506,1.508a.714.714,0,1,1,0-1.009.713.713,0,0,1,0,1.009" transform="translate(-2.089 -3.641)" fill="#f6881f"/>
      <path id="Path_1502" data-name="Path 1502" d="M16.521,18.213a1.418,1.418,0,1,0-1-.415,1.415,1.415,0,0,0,1,.415m-.505-1.923a.714.714,0,1,1,0,1.01.708.708,0,0,1,0-1.01" transform="translate(-2.839 -2.891)" fill="#f6881f"/>
      <path id="Path_1503" data-name="Path 1503" d="M20.233,14.5a1.418,1.418,0,1,0-1-.415,1.417,1.417,0,0,0,1,.415m-.5-1.923a.714.714,0,1,1,0,1.01.711.711,0,0,1,0-1.01" transform="translate(-3.537 -2.192)" fill="#f6881f"/>
      <path id="Path_1504" data-name="Path 1504" d="M55.209,63.468a1.419,1.419,0,1,0,2.006,0,1.415,1.415,0,0,0-2.006,0m1.508,1.508a.714.714,0,1,1,.209-.5.714.714,0,0,1-.209.5" transform="translate(-10.301 -11.853)" fill="#f6881f"/>
      <path id="Path_1505" data-name="Path 1505" d="M59.2,59.477a1.418,1.418,0,1,0,2,0,1.419,1.419,0,0,0-2,0m1.507,1.508a.715.715,0,1,1,0-1.01.716.716,0,0,1,0,1.01" transform="translate(-11.052 -11.103)" fill="#f6881f"/>
      <path id="Path_1506" data-name="Path 1506" d="M62.915,55.763a1.418,1.418,0,1,0,2.006,0,1.418,1.418,0,0,0-2.006,0m1.508,1.508a.715.715,0,1,1,.21-.506.714.714,0,0,1-.21.506" transform="translate(-11.75 -10.405)" fill="#f6881f"/>
      <path id="Path_1507" data-name="Path 1507" d="M51.124,59.383a1.418,1.418,0,1,0,2.006,0,1.406,1.406,0,0,0-2.006,0m1.508,1.508a.718.718,0,1,1,.208-.505.715.715,0,0,1-.208.505" transform="translate(-9.533 -11.085)" fill="#f6881f"/>
      <path id="Path_1508" data-name="Path 1508" d="M56.119,57.812a1.419,1.419,0,1,0-1-.415,1.415,1.415,0,0,0,1,.415m-.506-1.923a.716.716,0,1,1-.209.505.716.716,0,0,1,.209-.505" transform="translate(-10.283 -10.335)" fill="#f6881f"/>
      <path id="Path_1509" data-name="Path 1509" d="M59.833,54.1a1.419,1.419,0,1,0-1-.415,1.412,1.412,0,0,0,1,.415m-.505-1.922a.715.715,0,1,1-.209.5.711.711,0,0,1,.209-.5" transform="translate(-10.981 -9.637)" fill="#f6881f"/>
      <path id="Path_1510" data-name="Path 1510" d="M47.178,55.438a1.418,1.418,0,1,0,2.006,0,1.419,1.419,0,0,0-2.006,0m1.508,1.507a.714.714,0,1,1,0-1.009.713.713,0,0,1,0,1.009" transform="translate(-8.791 -10.344)" fill="#f6881f"/>
      <path id="Path_1511" data-name="Path 1511" d="M51.17,51.445a1.419,1.419,0,1,0,2.006,0,1.408,1.408,0,0,0-2.006,0m1.508,1.508a.731.731,0,0,1-1.009,0,.714.714,0,1,1,1.009,0" transform="translate(-9.542 -9.593)" fill="#f6881f"/>
      <path id="Path_1512" data-name="Path 1512" d="M55.888,50.152a1.417,1.417,0,1,0-1-.415,1.41,1.41,0,0,0,1,.415m-.505-1.923a.714.714,0,1,1-.21.505.711.711,0,0,1,.21-.505" transform="translate(-10.24 -8.895)" fill="#f6881f"/>
      <path id="Path_1513" data-name="Path 1513" d="M0,49.629a7.665,7.665,0,0,0,2.26,5.456l6.654,6.654a7.717,7.717,0,0,0,10.914,0L32,49.567,44.174,61.739a7.717,7.717,0,0,0,10.914,0l6.654-6.654a7.728,7.728,0,0,0,0-10.913L49.569,32,61.743,19.825a7.729,7.729,0,0,0,0-10.914L55.088,2.257a7.727,7.727,0,0,0-10.914,0L32,14.43,19.828,2.257a7.725,7.725,0,0,0-10.913,0L2.26,8.91a7.72,7.72,0,0,0,0,10.915L14.433,32,2.26,44.172A7.667,7.667,0,0,0,0,49.629M17.338,4.747,29.512,16.92,16.923,29.508,4.75,17.335a4.2,4.2,0,0,1,0-5.934L11.4,4.747a4.2,4.2,0,0,1,5.935,0m29.326,0a4.2,4.2,0,0,1,5.935,0L59.253,11.4a4.2,4.2,0,0,1,0,5.935L17.338,59.25a4.2,4.2,0,0,1-5.934,0h0L4.75,52.6a4.2,4.2,0,0,1,0-5.935Zm2.968,55.732a4.17,4.17,0,0,1-2.968-1.229L34.491,47.076,47.079,34.488,59.253,46.66a4.2,4.2,0,0,1,0,5.935L52.6,59.25a4.168,4.168,0,0,1-2.967,1.229" transform="translate(0 0)" fill="#f6881f"/>
      <path id="Path_1514" data-name="Path 1514" d="M31.85,45.54h0a4.228,4.228,0,0,0,5.969,0L46.657,36.7a4.221,4.221,0,0,0,0-5.97l-3.294-3.294a4.22,4.22,0,0,0-5.969,0l-8.84,8.839a4.227,4.227,0,0,0,0,5.969Zm7.537-16.111a1.439,1.439,0,0,1,1.985,0l3.294,3.294a1.4,1.4,0,0,1,0,1.985l-8.84,8.839a1.406,1.406,0,0,1-1.986,0l-3.293-3.294a1.4,1.4,0,0,1,0-1.986Z" transform="translate(-5.136 -4.925)" fill="#f6881f"/>
      <path id="Path_1515" data-name="Path 1515" d="M49.342,21.973a1.418,1.418,0,1,0-1-.416,1.412,1.412,0,0,0,1,.416m-.506-1.923a.714.714,0,1,1,0,1.009.713.713,0,0,1,0-1.009" transform="translate(-9.009 -3.597)" fill="#f6881f"/>
      <path id="Path_1516" data-name="Path 1516" d="M53.334,25.965a1.419,1.419,0,1,0-1-.415,1.412,1.412,0,0,0,1,.415m-.505-1.923a.714.714,0,0,1,1.219.505.714.714,0,1,1-1.219-.505" transform="translate(-9.76 -4.348)" fill="#f6881f"/>
      <path id="Path_1517" data-name="Path 1517" d="M57.047,29.679a1.417,1.417,0,1,0-1-.414,1.413,1.413,0,0,0,1,.414m-.5-1.922a.713.713,0,1,1-.21.5.709.709,0,0,1,.21-.5" transform="translate(-10.458 -5.046)" fill="#f6881f"/>
      <path id="Path_1518" data-name="Path 1518" d="M53.427,17.888a1.418,1.418,0,1,0-1-.415,1.413,1.413,0,0,0,1,.415m-.505-1.923a.714.714,0,1,1-.209.505.712.712,0,0,1,.209-.505" transform="translate(-9.777 -2.83)" fill="#f6881f"/>
      <path id="Path_1519" data-name="Path 1519" d="M56.416,19.459a1.418,1.418,0,1,0,2.006,0,1.42,1.42,0,0,0-2.006,0m1.508,1.508a.714.714,0,1,1,0-1.01.714.714,0,0,1,0,1.01" transform="translate(-10.528 -3.58)" fill="#f6881f"/>
      <path id="Path_1520" data-name="Path 1520" d="M61.132,25.594a1.418,1.418,0,1,0-1-.415,1.416,1.416,0,0,0,1,.415m-.5-1.923a.714.714,0,1,1-.209.505.71.71,0,0,1,.209-.505" transform="translate(-11.226 -4.278)" fill="#f6881f"/>
      <path id="Path_1521" data-name="Path 1521" d="M57.372,13.942a1.418,1.418,0,1,0-1-.415,1.417,1.417,0,0,0,1,.415m-.505-1.922a.713.713,0,1,1-.209.505.714.714,0,0,1,.209-.505" transform="translate(-10.519 -2.088)" fill="#f6881f"/>
      <path id="Path_1522" data-name="Path 1522" d="M61.365,17.934a1.417,1.417,0,1,0-1-.415,1.411,1.411,0,0,0,1,.415m-.505-1.922a.714.714,0,1,1,0,1.009.708.708,0,0,1,0-1.009" transform="translate(-11.269 -2.838)" fill="#f6881f"/>
      <path id="Path_1523" data-name="Path 1523" d="M65.078,21.648a1.417,1.417,0,1,0-1-.415,1.412,1.412,0,0,0,1,.415m-.5-1.922a.714.714,0,1,1,0,1.009.708.708,0,0,1,0-1.009" transform="translate(-11.968 -3.537)" fill="#f6881f"/>
      <path id="Path_1524" data-name="Path 1524" d="M12.686,55.208a1.418,1.418,0,0,0,1,2.421,1.4,1.4,0,0,0,1-.415,1.419,1.419,0,0,0,0-2.006,1.451,1.451,0,0,0-2,0m1.508,1.508a.73.73,0,0,1-1.01,0,.714.714,0,1,1,1.01,0" transform="translate(-2.307 -10.303)" fill="#f6881f"/>
      <path id="Path_1525" data-name="Path 1525" d="M16.678,59.2a1.418,1.418,0,1,0,2.006,0,1.42,1.42,0,0,0-2.006,0m1.508,1.508a.714.714,0,1,1,0-1.01.714.714,0,0,1,0,1.01" transform="translate(-3.057 -11.051)" fill="#f6881f"/>
      <path id="Path_1526" data-name="Path 1526" d="M20.393,62.913a1.418,1.418,0,1,0,2,0,1.417,1.417,0,0,0-2,0M21.9,64.42a.714.714,0,1,1,0-1.01.714.714,0,0,1,0,1.01" transform="translate(-3.756 -11.749)" fill="#f6881f"/>
      <path id="Path_1527" data-name="Path 1527" d="M16.772,51.124a1.418,1.418,0,1,0,2.006,0,1.45,1.45,0,0,0-2.006,0m1.507,1.507a.731.731,0,0,1-1.009,0,.714.714,0,1,1,1.009,0" transform="translate(-3.075 -9.535)" fill="#f6881f"/>
      <path id="Path_1528" data-name="Path 1528" d="M20.764,55.113a1.418,1.418,0,1,0,2,0,1.417,1.417,0,0,0-2,0m1.507,1.508a.714.714,0,1,1,0-1.01.713.713,0,0,1,0,1.01" transform="translate(-3.825 -10.283)" fill="#f6881f"/>
      <path id="Path_1529" data-name="Path 1529" d="M24.477,58.829a1.418,1.418,0,1,0,2.006,0,1.454,1.454,0,0,0-2.006,0m1.508,1.508a.729.729,0,0,1-1.009,0,.714.714,0,1,1,1.009,0" transform="translate(-4.524 -10.984)" fill="#f6881f"/>
      <path id="Path_1530" data-name="Path 1530" d="M21.72,49.595a1.418,1.418,0,1,0-1-.416,1.413,1.413,0,0,0,1,.416m-.505-1.923a.714.714,0,1,1,0,1.01.713.713,0,0,1,0-1.01" transform="translate(-3.817 -8.79)" fill="#f6881f"/>
      <path id="Path_1531" data-name="Path 1531" d="M24.709,51.166a1.418,1.418,0,1,0,2.006,0,1.42,1.42,0,0,0-2.006,0m1.508,1.508a.714.714,0,1,1,0-1.01.715.715,0,0,1,0,1.01" transform="translate(-4.567 -9.541)" fill="#f6881f"/>
      <path id="Path_1532" data-name="Path 1532" d="M28.423,54.883a1.419,1.419,0,0,0,1,2.421,1.419,1.419,0,0,0,1-2.421,1.451,1.451,0,0,0-2,0m1.508,1.508a.732.732,0,0,1-1.01,0,.714.714,0,1,1,1.01,0" transform="translate(-5.265 -10.242)" fill="#f6881f"/>
    </g>
  </g>
</svg>
