<svg xmlns="http://www.w3.org/2000/svg" width="44.41" height="50" viewBox="0 0 44.41 50">
  <g id="document" transform="translate(-33.052 -5)">
    <path id="Path_441" data-name="Path 441" d="M42.895,68.52H40.1a1.056,1.056,0,0,0-1.055,1.057v40.962A1.056,1.056,0,0,0,40.1,111.6H68.066a1.056,1.056,0,0,0,1.055-1.057v-2.592Z" transform="translate(-5.401 -57.193)" fill="#b3ccce"/>
    <path id="Path_442" data-name="Path 442" d="M71.811,42.96H68.706a1.057,1.057,0,0,0-1.056,1.057V84.872a1.057,1.057,0,0,0,1.056,1.057h27.96a1.056,1.056,0,0,0,1.055-1.057v-2.91Z" transform="translate(-31.152 -34.179)" fill="#cee6ea"/>
    <path id="Path_443" data-name="Path 443" d="M129.313,19.169l-8.042-8.134A1.059,1.059,0,0,0,121,11H100.486a1.057,1.057,0,0,0-1.056,1.057V53.125a1.057,1.057,0,0,0,1.056,1.057H128.34a1.056,1.056,0,0,0,1.055-1.057V19.579a1.061,1.061,0,0,0-.082-.409Z" transform="translate(-59.767 -5.402)" fill="#e1f5f9"/>
    <path id="Path_444" data-name="Path 444" d="M326.762,19.484h-4.488a3.557,3.557,0,0,1-3.554-3.561V11.35a1.054,1.054,0,0,1,.485.283l7.339,7.522a1.051,1.051,0,0,1,.218.33Z" transform="translate(-257.215 -5.718)" fill="#cee6ea"/>
    <circle id="Ellipse_2" data-name="Ellipse 2" cx="6.972" cy="6.972" r="6.972" transform="translate(62.922 31.043)" fill="#b7d195"/>
    <path id="Path_445" data-name="Path 445" d="M335.916,273.439a6.973,6.973,0,0,1,5.477-6.81,6.972,6.972,0,1,0,0,13.62A6.973,6.973,0,0,1,335.916,273.439Z" transform="translate(-270.006 -235.424)" fill="#a2b283"/>
    <path id="Path_446" data-name="Path 446" d="M102.418,53.124V12.057A1.057,1.057,0,0,1,103.474,11h-2.988a1.057,1.057,0,0,0-1.056,1.057V53.124a1.057,1.057,0,0,0,1.056,1.057h2.988a1.057,1.057,0,0,1-1.056-1.057Z" transform="translate(-59.767 -5.402)" fill="#f8feff"/>
    <g id="Group_31" data-name="Group 31" transform="translate(33.052 5)">
      <path id="Path_447" data-name="Path 447" d="M318.159,124.473h-2.576a.6.6,0,0,0,0,1.2h2.576a.6.6,0,0,0,0-1.2Z" transform="translate(-286.904 -112.573)" fill="#284268"/>
      <path id="Path_448" data-name="Path 448" d="M287.936,124.473a.6.6,0,0,0,0,1.2h.515a.6.6,0,1,0,0-1.2Z" transform="translate(-262.011 -112.573)" fill="#284268"/>
      <path id="Path_449" data-name="Path 449" d="M146.4,124.473a.6.6,0,1,0,0,1.2h11.828a.6.6,0,1,0,0-1.2Z" transform="translate(-134.576 -112.573)" fill="#284268"/>
      <path id="Path_450" data-name="Path 450" d="M255.851,174.218h-9.469a.6.6,0,1,0,0,1.2h9.469a.6.6,0,0,0,0-1.2Z" transform="translate(-224.596 -157.364)" fill="#284268"/>
      <path id="Path_451" data-name="Path 451" d="M222.512,174.218a.6.6,0,0,0,0,1.2h.152a.6.6,0,0,0,0-1.2Z" transform="translate(-203.103 -157.364)" fill="#284268"/>
      <path id="Path_452" data-name="Path 452" d="M151.807,174.218h-5.4a.6.6,0,1,0,0,1.2h5.4a.6.6,0,0,0,0-1.2Z" transform="translate(-134.576 -157.364)" fill="#284268"/>
      <path id="Path_453" data-name="Path 453" d="M333.749,223.964H332.9a.6.6,0,1,0,0,1.2h.852a.6.6,0,0,0,0-1.2Z" transform="translate(-302.494 -202.155)" fill="#284268"/>
      <path id="Path_454" data-name="Path 454" d="M223.5,223.964h-9.629a.6.6,0,1,0,0,1.2H223.5a.6.6,0,1,0,0-1.2Z" transform="translate(-195.321 -202.155)" fill="#284268"/>
      <path id="Path_455" data-name="Path 455" d="M146.4,225.159h4.463a.6.6,0,1,0,0-1.2H146.4a.6.6,0,1,0,0,1.2Z" transform="translate(-134.576 -202.155)" fill="#284268"/>
      <path id="Path_456" data-name="Path 456" d="M272.52,273.709h-2.081a.6.6,0,1,0,0,1.2h2.081a.6.6,0,1,0,0-1.2Z" transform="translate(-246.256 -246.945)" fill="#284268"/>
      <path id="Path_457" data-name="Path 457" d="M202.109,274.307a.6.6,0,0,0-.6-.6H196.33a.6.6,0,1,0,0,1.2h5.182a.6.6,0,0,0,.6-.6Z" transform="translate(-179.529 -246.945)" fill="#284268"/>
      <path id="Path_458" data-name="Path 458" d="M146.4,274.9h2.782a.6.6,0,1,0,0-1.2H146.4a.6.6,0,1,0,0,1.2Z" transform="translate(-134.576 -246.945)" fill="#284268"/>
      <path id="Path_459" data-name="Path 459" d="M260.623,323.454h-2.782a.6.6,0,0,0,0,1.2h2.782a.6.6,0,0,0,0-1.2Z" transform="translate(-234.914 -291.736)" fill="#284268"/>
      <path id="Path_460" data-name="Path 460" d="M174.443,324.649h6.111a.6.6,0,1,0,0-1.2h-6.111a.6.6,0,1,0,0,1.2Z" transform="translate(-159.822 -291.736)" fill="#284268"/>
      <path id="Path_461" data-name="Path 461" d="M147.005,323.454h-.6a.6.6,0,1,0,0,1.2h.6a.6.6,0,1,0,0-1.2Z" transform="translate(-134.58 -291.736)" fill="#284268"/>
      <path id="Path_462" data-name="Path 462" d="M282.733,75.923h.642a.6.6,0,0,0,0-1.2h-.642a.6.6,0,1,0,0,1.2Z" transform="translate(-257.326 -67.783)" fill="#284268"/>
      <path id="Path_463" data-name="Path 463" d="M182.608,75.923h7.8a.6.6,0,1,0,0-1.2h-7.8a.6.6,0,1,0,0,1.2Z" transform="translate(-167.174 -67.783)" fill="#284268"/>
      <path id="Path_464" data-name="Path 464" d="M145.384,75.923H146.9a.6.6,0,1,0,0-1.2h-1.517a.6.6,0,1,0,0,1.2Z" transform="translate(-133.657 -67.783)" fill="#284268"/>
      <path id="Path_465" data-name="Path 465" d="M226.779,373.2h-6.526a.6.6,0,0,0,0,1.2h6.526a.6.6,0,1,0,0-1.2Z" transform="translate(-201.07 -336.527)" fill="#284268"/>
      <path id="Path_466" data-name="Path 466" d="M175.831,373.2h-2.409a.6.6,0,1,0,0,1.2h2.409a.6.6,0,1,0,0-1.2Z" transform="translate(-158.902 -336.527)" fill="#284268"/>
      <path id="Path_467" data-name="Path 467" d="M146.8,373.2h-.4a.6.6,0,1,0,0,1.2h.4a.6.6,0,1,0,0-1.2Z" transform="translate(-134.576 -336.527)" fill="#284268"/>
      <path id="Path_468" data-name="Path 468" d="M122.9,46.038a.6.6,0,0,0-.6.6v.627a.6.6,0,0,0,1.2,0v-.627A.6.6,0,0,0,122.9,46.038Z" transform="translate(-113.411 -41.951)" fill="#284268"/>
      <path id="Path_469" data-name="Path 469" d="M122.9,75.333a.6.6,0,0,0-.6.6v9.861a.6.6,0,1,0,1.2,0V75.931A.6.6,0,0,0,122.9,75.333Z" transform="translate(-113.411 -68.328)" fill="#284268"/>
      <path id="Path_470" data-name="Path 470" d="M367.341,303.964l-4.892,4.892-1.671-1.671a.6.6,0,1,0-.845.845l2.094,2.093a.6.6,0,0,0,.845,0l5.314-5.315a.6.6,0,0,0-.845-.845Z" transform="translate(-327.218 -274.029)" fill="#284268"/>
      <path id="Path_471" data-name="Path 471" d="M70.279,30.455l-.053,0V14.176a1.647,1.647,0,0,0-.47-1.156L62.418,5.5A1.662,1.662,0,0,0,61.236,5H40.719a1.656,1.656,0,0,0-1.653,1.655V8.183H37.554A1.656,1.656,0,0,0,35.9,9.837v.892H34.7a1.656,1.656,0,0,0-1.653,1.655V53.345A1.655,1.655,0,0,0,34.7,55h27.96a1.656,1.656,0,0,0,1.653-1.655v-1h1.2a1.655,1.655,0,0,0,1.653-1.655V49.377h1.407a1.655,1.655,0,0,0,1.653-1.654V45.577a7.57,7.57,0,0,0,.053-15.122ZM62.1,6.886l6.13,6.283H65.059A2.963,2.963,0,0,1,62.1,10.206Zm1.021,46.459a.459.459,0,0,1-.457.459H34.7a.459.459,0,0,1-.457-.459V12.384a.459.459,0,0,1,.457-.459h1.2V50.693a1.656,1.656,0,0,0,1.653,1.655H63.123Zm2.849-2.652a.459.459,0,0,1-.457.459H37.554a.459.459,0,0,1-.458-.459V9.837a.459.459,0,0,1,.458-.459h1.513V47.722a1.655,1.655,0,0,0,1.653,1.654H65.971Zm3.515-6.317A6.371,6.371,0,0,1,64.2,35.16a.591.591,0,0,0-.115-.682.6.6,0,0,0-.956.153,7.563,7.563,0,0,0,5.905,10.9v2.189a.459.459,0,0,1-.457.459H40.719a.459.459,0,0,1-.457-.459V6.655a.459.459,0,0,1,.457-.459H60.907v4.011a4.16,4.16,0,0,0,4.152,4.158h3.973V30.5a7.515,7.515,0,0,0-2.952.985.6.6,0,0,0,.6,1.029,6.374,6.374,0,1,1,2.8,11.866Z" transform="translate(-33.052 -5)" fill="#284268"/>
    </g>
  </g>
</svg>
