<svg xmlns="http://www.w3.org/2000/svg" width="50.007" height="50" viewBox="0 0 50.007 50">
  <g id="Group_108" data-name="Group 108" transform="translate(-496.47 -245.93)">
    <path id="XMLID_3203_" d="M43.594,76.129H10V31.988a1.953,1.953,0,0,1,1.953-1.953H41.641a1.953,1.953,0,0,1,1.953,1.953Z" transform="translate(487.47 217.801)" fill="#f8f8f8"/>
    <g id="XMLID_2349_" transform="translate(496.47 245.93)">
      <path id="XMLID_2356_" d="M253.909,226.858l16.075-16.075a2.734,2.734,0,0,1,3.867,0h0a2.734,2.734,0,0,1,0,3.867l-16.075,16.075-7.739,3.872Z" transform="translate(-225.619 -189.48)" fill="#ffcb78"/>
      <path id="XMLID_2355_" d="M257.775,386.657l-3.867-3.867-3.872,7.739Z" transform="translate(-225.618 -345.412)" fill="#afabb0"/>
      <path id="XMLID_2354_" d="M444.545,215.979l1.329-1.329a2.734,2.734,0,0,0,0-3.867h0a2.734,2.734,0,0,0-3.867,0l-1.329,1.329Z" transform="translate(-397.643 -189.479)" fill="#ff7480"/>
      <g id="XMLID_362_">
        <path id="XMLID_363_" d="M294.977,154.538a.977.977,0,1,0-.69-.286A.984.984,0,0,0,294.977,154.538Z" transform="translate(-265.289 -137.688)"/>
        <path id="XMLID_364_" d="M54.976,134.665a.972.972,0,0,0,.527-.155l2.858-1.835.031.2a1.608,1.608,0,0,0,2.519,1.07l1.118-.792a1.608,1.608,0,0,0,2.119,1.117l2.711-1a1.609,1.609,0,0,0,1.585,1.333h6.063a.977.977,0,0,0,0-1.953H68.8a1.608,1.608,0,0,0-2.162-1.383l-2.777,1.029a1.608,1.608,0,0,0-2.516-1.05l-1.11.786-.027-.174a1.608,1.608,0,0,0-2.459-1.11l-3.305,2.122a.977.977,0,0,0,.529,1.8Z" transform="translate(-48.725 -117.749)"/>
        <path id="XMLID_365_" d="M54.977,221.8a.973.973,0,0,0,.527-.155l2.858-1.835.031.2a1.608,1.608,0,0,0,2.519,1.07l1.118-.792a1.608,1.608,0,0,0,2.119,1.117l2.711-1a1.609,1.609,0,0,0,1.585,1.333h9.969a.977.977,0,0,0,0-1.953H68.8a1.608,1.608,0,0,0-2.162-1.383l-2.777,1.029a1.608,1.608,0,0,0-2.516-1.05l-1.11.786-.027-.174a1.608,1.608,0,0,0-2.459-1.11L54.448,220a.977.977,0,0,0,.529,1.8Z" transform="translate(-48.726 -196.377)"/>
        <path id="XMLID_366_" d="M54.976,308.938a.972.972,0,0,0,.527-.155l2.858-1.835.031.2a1.608,1.608,0,0,0,2.519,1.07l1.118-.792a1.608,1.608,0,0,0,2.119,1.116l2.711-1a1.609,1.609,0,0,0,1.585,1.333h7.235a.977.977,0,0,0,0-1.953H68.8a1.608,1.608,0,0,0-2.162-1.383l-2.777,1.029a1.608,1.608,0,0,0-2.516-1.05l-1.11.786-.027-.174a1.608,1.608,0,0,0-2.459-1.11l-3.305,2.122a.977.977,0,0,0,.529,1.8Z" transform="translate(-48.725 -275.003)"/>
        <path id="XMLID_367_" d="M69.07,394.054H68.8a1.608,1.608,0,0,0-2.162-1.383L63.863,393.7a1.608,1.608,0,0,0-2.516-1.05l-1.11.786-.027-.174a1.608,1.608,0,0,0-2.459-1.11l-3.305,2.122a.977.977,0,1,0,1.055,1.643l2.858-1.835.031.2a1.608,1.608,0,0,0,2.519,1.07l1.118-.792a1.608,1.608,0,0,0,2.119,1.117l2.711-1a1.609,1.609,0,0,0,1.585,1.333h.627a.976.976,0,1,0,0-1.953Z" transform="translate(-48.725 -353.629)"/>
        <path id="XMLID_370_" d="M48.922,20.648a3.715,3.715,0,0,0-5.248,0l-8.127,8.127V4.918a2.933,2.933,0,0,0-2.93-2.93H30.664V1.012a.977.977,0,0,0-1.953,0v.977H25.977V1.012a.977.977,0,0,0-1.953,0v.977H21.289V1.012a.977.977,0,0,0-1.953,0v.977H16.6V1.012a.977.977,0,0,0-1.953,0v.977H11.914V1.012a.977.977,0,0,0-1.953,0v.977H7.227V1.012a.977.977,0,0,0-1.953,0v.977H2.93A2.933,2.933,0,0,0,0,4.918V49.058a.977.977,0,0,0,.977.977H34.57a.977.977,0,0,0,.977-.977V39.271l4-4a.977.977,0,0,0-1.381-1.381L32.156,39.9l-2.486-2.486L43.035,24.049l2.486,2.486-1.833,1.833a.977.977,0,1,0,1.381,1.381L48.922,25.9A3.715,3.715,0,0,0,48.922,20.648ZM33.594,48.082H1.953V4.918a.978.978,0,0,1,.977-.977H5.273V6.285a.977.977,0,0,0,1.953,0V3.941H9.961V6.285a.977.977,0,0,0,1.953,0V3.941h2.734V6.285a.977.977,0,0,0,1.953,0V3.941h2.734V6.285a.977.977,0,0,0,1.953,0V3.941h2.734V6.285a.977.977,0,0,0,1.953,0V3.941h2.734V6.285a.977.977,0,0,0,1.953,0V3.941h1.953a.978.978,0,0,1,.977.977v25.81L27.6,36.723a.977.977,0,0,0-.183.254l-3.872,7.739a.977.977,0,0,0,1.31,1.31l7.739-3.872a.98.98,0,0,0,.254-.183l.747-.747v6.858Zm-5.037-9.02,1.951,1.951L26.6,42.967ZM47.541,24.515l-.639.639-2.486-2.486.639-.639a1.758,1.758,0,0,1,2.486,2.486Z" transform="translate(0 -0.035)"/>
        <path id="XMLID_426_" d="M417.126,315.525a.977.977,0,1,0,.69.286A.986.986,0,0,0,417.126,315.525Z" transform="translate(-375.509 -284.715)"/>
      </g>
    </g>
  </g>
</svg>
