<svg xmlns="http://www.w3.org/2000/svg" width="49.996" height="50" viewBox="0 0 49.996 50">
  <g id="documents" transform="translate(-0.022)">
    <g id="Group_29" data-name="Group 29" transform="translate(0.752 0.732)">
      <path id="Path_407" data-name="Path 407" d="M30.817,124.268H8.472a.977.977,0,0,1-.977-.977V87.73a.977.977,0,0,1,.977-.977H30.817a.977.977,0,0,1,.977.977v35.562a.977.977,0,0,1-.976.977Z" transform="translate(-7.495 -79.013)" fill="#e1ebf0"/>
      <path id="Path_408" data-name="Path 408" d="M53.883,87.727v33.157a.977.977,0,0,1-.977.977H32.952a.977.977,0,0,1-.977-.977V87.727a.977.977,0,0,1,.977-.977H52.906A.977.977,0,0,1,53.883,87.727Z" transform="translate(-29.584 -79.011)" fill="#d2e4e7"/>
      <path id="Path_409" data-name="Path 409" d="M74.2,84.642H47.948a.977.977,0,0,1-.977-.977V48.1a.977.977,0,0,1,.977-.977H74.2a.977.977,0,0,1,.977.977V83.665A.977.977,0,0,1,74.2,84.642Z" transform="translate(-43.116 -43.257)" fill="#e1ebf0"/>
      <path id="Path_410" data-name="Path 410" d="M97.266,48.107V81.263a.977.977,0,0,1-.977.977H72.422a.977.977,0,0,1-.977-.977V48.107a.977.977,0,0,1,.977-.977H96.289A.977.977,0,0,1,97.266,48.107Z" transform="translate(-65.2 -43.26)" fill="#d2e4e7"/>
      <path id="Path_411" data-name="Path 411" d="M86.445,44.039V8.477a.977.977,0,0,1,.977-.977h26.257a.977.977,0,0,1,.977.977V44.039a.977.977,0,0,1-.977.977H87.422A.977.977,0,0,1,86.445,44.039Z" transform="translate(-78.735 -7.5)" fill="#e1ebf0"/>
      <path id="Path_412" data-name="Path 412" d="M254.126,61.928h7.731a.488.488,0,0,0,.488-.488V53.675a.488.488,0,0,0-.488-.488h-7.731a.488.488,0,0,0-.488.488V61.44A.488.488,0,0,0,254.126,61.928Z" transform="translate(-229.6 -48.725)" fill="#f3d332"/>
      <path id="Path_413" data-name="Path 413" d="M256.076,61.931h-1.953a.488.488,0,0,1-.488-.488V53.678a.488.488,0,0,1,.488-.488h1.953a.488.488,0,0,0-.488.488v7.765A.488.488,0,0,0,256.076,61.931Z" transform="translate(-229.598 -48.728)" fill="#ecc52e"/>
      <g id="Group_22" data-name="Group 22" transform="translate(10.153 11.287)">
        <path id="Path_414" data-name="Path 414" d="M122.166,124.54h-9.978a.732.732,0,0,1,0-1.465h9.978a.732.732,0,1,1,0,1.465Z" transform="translate(-111.456 -123.075)" fill="#b4d2d7"/>
      </g>
      <g id="Group_23" data-name="Group 23" transform="translate(16.049 17.479)">
        <path id="Path_415" data-name="Path 415" d="M182.632,187.944H172.563a.732.732,0,0,1,0-1.465h10.069a.732.732,0,1,1,0,1.465Z" transform="translate(-171.831 -186.479)" fill="#b4d2d7"/>
      </g>
      <g id="Group_24" data-name="Group 24" transform="translate(10.153 8.1)">
        <path id="Path_416" data-name="Path 416" d="M122.166,91.907h-9.978a.732.732,0,0,1,0-1.465h9.978a.732.732,0,1,1,0,1.465Z" transform="translate(-111.456 -90.442)" fill="#b4d2d7"/>
      </g>
      <g id="Group_25" data-name="Group 25" transform="translate(10.153 4.913)">
        <path id="Path_417" data-name="Path 417" d="M122.166,59.274h-9.978a.732.732,0,0,1,0-1.465h9.978a.732.732,0,1,1,0,1.465Z" transform="translate(-111.456 -57.809)" fill="#b4d2d7"/>
      </g>
      <g id="Group_26" data-name="Group 26" transform="translate(10.153 25.583)">
        <path id="Path_418" data-name="Path 418" d="M127.214,270.926H112.188a.732.732,0,1,1,0-1.465h15.025a.732.732,0,0,1,0,1.465Z" transform="translate(-111.456 -269.461)" fill="#b4d2d7"/>
      </g>
      <g id="Group_27" data-name="Group 27" transform="translate(10.153 21.485)">
        <path id="Path_419" data-name="Path 419" d="M124.071,228.969H112.188a.732.732,0,0,1,0-1.465h11.883a.732.732,0,1,1,0,1.465Z" transform="translate(-111.456 -227.504)" fill="#b4d2d7"/>
      </g>
      <g id="Group_28" data-name="Group 28" transform="translate(25.21 21.485)">
        <path id="Path_420" data-name="Path 420" d="M273.225,228.969h-6.849a.732.732,0,1,1,0-1.465h6.849a.732.732,0,0,1,0,1.465Z" transform="translate(-265.644 -227.504)" fill="#b4d2d7"/>
      </g>
      <path id="Path_421" data-name="Path 421" d="M158.372,328.24a.977.977,0,0,1,.977.977v.663a4.544,4.544,0,0,1-4.535,4.553l-14.807.488-8.051-.488a4.545,4.545,0,0,0,4.536-4.553v-.663a.977.977,0,0,1,.977-.977Z" transform="translate(-119.8 -296.917)" fill="#d2e4e7"/>
      <path id="Path_422" data-name="Path 422" d="M281.273,264.689v6.2H271.1a10.8,10.8,0,0,1,9.757-6.207C280.993,264.68,281.133,264.683,281.273,264.689Z" transform="translate(-245.352 -239.564)" fill="#d2e4e7"/>
      <path id="Path_423" data-name="Path 423" d="M267.971,328.24v6.681a.977.977,0,0,1-.977.977h-5.93a10.584,10.584,0,0,1-.268-1.131,10.8,10.8,0,0,1,.851-6.526Z" transform="translate(-235.905 -296.917)" fill="#b4d2d7"/>
      <path id="Path_424" data-name="Path 424" d="M421.143,424.094l4.958,4.411a2.023,2.023,0,0,1,.067,2.879,2.054,2.054,0,0,1-2.895-.072l-4.952-4.435Z" transform="translate(-378.201 -383.41)" fill="#f3d332"/>
      <path id="Path_425" data-name="Path 425" d="M422.617,425.4a10.864,10.864,0,0,1-2.791,2.818l-1.5-1.344,2.821-2.784Z" transform="translate(-378.204 -383.407)" fill="#ecc52e"/>
      <path id="Path_426" data-name="Path 426" d="M272.031,396.65v2.4a.977.977,0,0,1-.977.977h-4.888a10.68,10.68,0,0,1-1.042-2.4h5.93A.977.977,0,0,0,272.031,396.65Z" transform="translate(-239.965 -358.646)" fill="#d2e4e7"/>
      <path id="Path_427" data-name="Path 427" d="M280.622,293.537a8.826,8.826,0,1,1,8.826,8.853A8.864,8.864,0,0,1,280.622,293.537Z" transform="translate(-253.949 -257.614)" fill="#3a67c1"/>
      <path id="Path_428" data-name="Path 428" d="M296.212,314.942a8.82,8.82,0,0,1-15.587-5.69,8.835,8.835,0,0,1,3.625-7.152,8.838,8.838,0,0,0,11.962,12.842Z" transform="translate(-253.952 -273.33)" fill="#30569f"/>
      <path id="Path_429" data-name="Path 429" d="M314.572,324.267a5.511,5.511,0,1,1,5.511,5.528A5.532,5.532,0,0,1,314.572,324.267Z" transform="translate(-284.583 -288.344)" fill="#e1ebf0"/>
      <path id="Path_430" data-name="Path 430" d="M324.829,334.11a5.516,5.516,0,1,1-7.534-7.58,5.433,5.433,0,0,0-.455.978,5.514,5.514,0,0,0,7.989,6.6Z" transform="translate(-284.586 -295.374)" fill="#d2e4e7"/>
    </g>
    <g id="Group_30" data-name="Group 30" transform="translate(0.022)">
      <path id="Path_431" data-name="Path 431" d="M247.386,55.894h7.731a1.222,1.222,0,0,0,1.221-1.221V46.909a1.222,1.222,0,0,0-1.221-1.221h-7.731a1.222,1.222,0,0,0-1.221,1.221v1.837a.732.732,0,1,0,1.465,0V47.153h7.243v7.276H247.63V52.27a.732.732,0,1,0-1.465,0v2.4A1.222,1.222,0,0,0,247.386,55.894Z" transform="translate(-222.127 -41.226)"/>
      <path id="Path_432" data-name="Path 432" d="M112.215,124.54h9.978a.732.732,0,1,0,0-1.465h-9.978a.732.732,0,0,0,0,1.465Z" transform="translate(-100.598 -111.056)"/>
      <path id="Path_433" data-name="Path 433" d="M183.392,187.211a.732.732,0,0,0-.732-.732H172.59a.732.732,0,0,0,0,1.465h10.069A.732.732,0,0,0,183.392,187.211Z" transform="translate(-155.077 -168.268)"/>
      <path id="Path_434" data-name="Path 434" d="M112.215,91.907h9.978a.732.732,0,1,0,0-1.465h-9.978a.732.732,0,0,0,0,1.465Z" transform="translate(-100.598 -81.61)"/>
      <path id="Path_435" data-name="Path 435" d="M112.215,59.274h9.978a.732.732,0,1,0,0-1.465h-9.978a.732.732,0,0,0,0,1.465Z" transform="translate(-100.598 -52.163)"/>
      <path id="Path_436" data-name="Path 436" d="M112.215,270.926h15.025a.732.732,0,1,0,0-1.465H112.215a.732.732,0,0,0,0,1.465Z" transform="translate(-100.598 -243.146)"/>
      <path id="Path_437" data-name="Path 437" d="M112.215,228.969H124.1a.732.732,0,1,0,0-1.465H112.215a.732.732,0,0,0,0,1.465Z" transform="translate(-100.598 -205.286)"/>
      <path id="Path_438" data-name="Path 438" d="M273.252,227.5H266.4a.732.732,0,0,0,0,1.465h6.849a.732.732,0,0,0,0-1.465Z" transform="translate(-239.728 -205.286)"/>
      <path id="Path_439" data-name="Path 439" d="M49.168,45.306l-.027-.026L44.633,41.27A9.556,9.556,0,0,0,45.806,37a.732.732,0,1,0-1.464-.052,8.109,8.109,0,1,1-.463-3.026.732.732,0,1,0,1.38-.491,9.588,9.588,0,0,0-7.851-6.294V1.221A1.222,1.222,0,0,0,36.187,0H8.953A1.222,1.222,0,0,0,7.732,1.221V3.87H5.1A1.222,1.222,0,0,0,3.877,5.091V7.74H1.243A1.222,1.222,0,0,0,.022,8.96V45.5a1.222,1.222,0,0,0,1.221,1.221H24.565A1.222,1.222,0,0,0,25.785,45.5V42.85h3.18A9.538,9.538,0,0,0,40.782,45.1l4.541,4.067a2.726,2.726,0,1,0,3.844-3.861ZM9.2,1.465H35.943v25.61a9.572,9.572,0,0,0-7.632,4.248H25.336a.732.732,0,1,0,0,1.465H27.5q-.147.335-.27.683a9.588,9.588,0,0,0-.54,3.184c0,.29.014.576.039.86H16.544a5.277,5.277,0,0,0,1.633-3.82v-.906h3.984a.732.732,0,0,0,0-1.465H17.445a.732.732,0,0,0-.732.732v1.639a3.816,3.816,0,0,1-3.8,3.82H9.2ZM5.342,41.385V31.373a.732.732,0,0,0-1.465,0V41.629A1.222,1.222,0,0,0,5.1,42.849H24.321v2.405H1.487V9.2h2.39V28.277a.732.732,0,1,0,1.465,0V5.335h2.39V38.247a.732.732,0,0,0,.732.732H26.98a9.54,9.54,0,0,0,.962,2.4H5.342Zm42.864,6.8a1.33,1.33,0,0,1-1.89-.1l-4.26-3.815a9.7,9.7,0,0,0,1.768-1.764l4.328,3.851A1.3,1.3,0,0,1,48.206,48.186Z" transform="translate(-0.022)"/>
      <path id="Path_440" data-name="Path 440" d="M313.335,311.233a6.26,6.26,0,1,0,6.243,6.26A6.28,6.28,0,0,0,313.335,311.233Zm0,11.055a4.8,4.8,0,1,1,4.778-4.8A4.792,4.792,0,0,1,313.335,322.288Z" transform="translate(-277.103 -280.838)"/>
    </g>
  </g>
</svg>
