<svg xmlns="http://www.w3.org/2000/svg" width="20" height="22" viewBox="0 0 20 21.429">
  <path id="Path_1099" data-name="Path 1099" d="M.833,0H0V17.857H3.333v3.571H20V4.438H16.667V0H.833ZM16.667,6.223V17.857H5v1.786H18.333V6.223Zm-15,8.455V1.786H15V11.821L12.307,8.357l-.653-.839-.638.857L8.264,12.054,6.422,10.08l-.645-.687-.584.75Zm1.085,1.393,3.137-4.036,1.855,1.991.658.705.582-.786,2.7-3.607L15,14.607v1.464ZM3.333,6.25A1.732,1.732,0,0,1,5,4.464,1.732,1.732,0,0,1,6.667,6.25,1.732,1.732,0,0,1,5,8.036,1.732,1.732,0,0,1,3.333,6.25" fill="#fff" fill-rule="evenodd"/>
</svg>
