<svg xmlns="http://www.w3.org/2000/svg" width="70.802" height="49.798" viewBox="0 0 70.802 49.798">
  <g id="play" transform="translate(23.401 11.601)">
    <g id="Group_1060" data-name="Group 1060" transform="translate(-23.436 -23.436)">
      <rect id="Rectangle_433" data-name="Rectangle 433" width="25" height="24" transform="translate(24.436 24.436)" fill="#fff"/>
      <path id="Path_847" data-name="Path 847" d="M28.091,38.074l0-19.884,19.131,9.971Zm42-23.335S69.4,9.871,67.28,7.717a10.151,10.151,0,0,0-7.092-3.009C50.278,4,35.416,4,35.416,4h-.03s-14.863,0-24.769.708a10.158,10.158,0,0,0-7.1,3.009C1.4,9.871.708,14.738.708,14.738A107.031,107.031,0,0,0,0,26.214v5.369A106.848,106.848,0,0,0,.708,43.03S1.4,47.9,3.519,50.051c2.7,2.832,6.234,2.744,7.809,3.039,5.664.531,24.073.708,24.073.708s14.877-.029,24.787-.738a10.151,10.151,0,0,0,7.092-3.009C69.4,47.9,70.094,43.03,70.094,43.03A106.848,106.848,0,0,0,70.8,31.583V26.214a107.031,107.031,0,0,0-.708-11.476" transform="translate(0.034 7.835)" fill="#cd201f" fill-rule="evenodd"/>
    </g>
  </g>
</svg>
